<?xml version="1.0" encoding="UTF-8"?>
<svg id="Layer_2" data-name="Layer 2" xmlns="http://www.w3.org/2000/svg" xmlns:xlink="http://www.w3.org/1999/xlink" viewBox="0 0 1920 700.03">
  <defs>
    <style>
      .cls-1, .cls-2 {
        fill: none;
      }

      .cls-2 {
        stroke: #000;
        stroke-linecap: round;
        stroke-linejoin: round;
        stroke-width: 6px;
      }

      .cls-3 {
        fill: #e02371;
      }

      .cls-4 {
        fill: #ee7a14;
      }

      .cls-5 {
        fill: #0062a6;
      }

      .cls-6 {
        fill: #33b3f8;
      }

      .cls-7 {
        fill: #08a6ef;
      }

      .cls-8 {
        fill: #ffc200;
      }

      .cls-9 {
        clip-path: url(#clippath);
      }

      .cls-10 {
        fill: #2ab25e;
      }
    </style>
    <clipPath id="clippath">
      <rect class="cls-1" width="1920" height="700.03"/>
    </clipPath>
  </defs>
  <g id="Layer_1-2" data-name="Layer 1">
    <g class="cls-9">
      <path class="cls-6" d="M1291.37,596c-36.39,49.2,23.48,132.61-105.23,108.33-36.87,0-73.8,0-110.67,0-89.6,14.18-89.47,8.28-121.28-32.99-2.39-3.09,24.27-66.03,64.04-136.11,39.77-70.07,145.43-78.64,199.09-41.61,66.49,45.87,73.72,96.94,74.04,102.38Z"/>
      <path class="cls-8" d="M1031.2,556.1c.97.95,14.17,17.39,16.56,20.48,31.82,41.27,35.91,95.25,27.71,145.26-77.45.01-154.96.02-232.41,0-29.76-37.71-37.77-85.79,11.07-153.59,48.84-67.8,126.47-61.66,177.08-12.15Z"/>
      <path class="cls-10" d="M129.22,364.34c77.29,5.89,142.92,58.76,183.72,121.55,45.98,70.75,67.58,163.97,63.14,248.12-.83,15.68-2.18,32.26-7.8,46.91H-86.59v-276.24c41.37-82.92,118.06-147.77,215.81-140.33Z"/>
      <path class="cls-4" d="M546.45,461.58c24.12,16.57,45.32,42.63,58.66,68.51,38.9,75.48,38.22,169,24.35,250.83-87.04-.02-174.14.02-261.19,0,5.62-14.65,6.98-31.23,7.8-46.91,4.44-84.15-17.16-177.37-63.14-248.12,3.32-6.14,9.84-8.94,15.59-12.61,65.95-42.05,149.66-58.6,217.93-11.7Z"/>
      <path class="cls-5" d="M779.97,514.62c39.85,22.34,65.54,69.01,74.15,112.71,10.09,51.21,2.82,103.91-11.07,153.59-71.18-.01-142.42.02-213.6,0,13.88-81.83,14.55-175.35-24.35-250.83,50.64-31.78,120.22-46.09,174.86-15.47Z"/>
      <path class="cls-3" d="M779.97,514.62c-54.65-30.62-124.22-16.31-174.86,15.47-13.34-25.88-34.54-51.94-58.66-68.51,4.04-22.75,3.6-45.53,2.21-68.51-1.86,8.98.23,6.34,1.65,6.62s15.88-17.48,19.37-20.44c108-92.03,207.71,26.08,210.29,135.37Z"/>
      <path class="cls-3" d="M-86.59,105.78c94.78-35.45,207.1-1.43,260.53,85.18,7.29,11.82,11.87,24.85,19.47,36.36-33.71,38.54-55.6,86.5-64.19,137.02-97.75-7.44-174.45,57.41-215.81,140.33V105.78Z"/>
      <path class="cls-8" d="M548.67,393.07c1.38,22.97,1.82,45.76-2.21,68.51-68.27-46.9-151.98-30.35-217.93,11.7-5.75,3.67-12.27,6.47-15.59,12.61-40.8-62.78-106.42-115.66-183.72-121.55,8.59-50.52,30.48-98.48,64.19-137.02,147.27-168.37,343.65-26.85,355.26,165.75Z"/>
      <path class="cls-6" d="M1669.78,312.41c.74.02,1.48-.03,2.21,0,81.66,3.34,142.13,59.36,170.44,132.6-149.6,15.17-217.9,207.91-175.97,335.91-87.04.05-174.14-.03-261.19,0-29.91-74.42-27.9-160.44-4.43-236.46l2.21-5.52c37.22-112.39,138.21-229.82,266.72-226.52Z"/>
      <path class="cls-4" d="M2038.32,559.92c-.08,73.65.05,147.35,0,221-123.94.05-247.93-.08-371.87,0-41.93-128,26.37-320.74,175.97-335.91,86.34-8.76,155.53,42.84,195.89,114.92Z"/>
      <path class="cls-10" d="M2038.32,559.92c-40.36-72.08-109.55-123.67-195.89-114.92-28.31-73.24-88.78-129.25-170.44-132.6,46.6-120.5,236.86-167.35,339.45-94.16,6.68,4.76,25.47,19.54,26.93,27.25-.19,104.81.05,209.63-.06,314.42Z"/>
      <path class="cls-3" d="M1669.78,312.41c-128.52-3.3-229.5,114.13-266.72,226.52-.38,1.13-1.67,2.69-2.21,4.42-33.43-16.67-75.73-20.15-110.67-5.52-33.33-113.12,2.32-266.05,109.93-327.25,107.5-61.14,220.22-.52,269.67,101.84Z"/>
      <path class="cls-5" d="M1400.84,543.35c-.11.34.1.77,0,1.1-23.48,76.02-25.48,162.04,4.43,236.46-73.02.02-146.11-.01-219.13,0,2.46-59.15,5.67-143.07,42.06-192.26,12.58-17.01,42.54-42.7,61.98-50.83,34.94-14.62,77.24-11.15,110.67,5.52Z"/>
      <path class="cls-7" d="M1400.84,544.45c.1-.34-.11-.77,0-1.1.54-1.73,1.84-3.29,2.21-4.42l-2.21,5.52Z"/>
      <path class="cls-2" d="M1439.39,166.59c4.15,16.91,30.55,2.86,16.15-11.1-8.9-10.69-25.99-7.35-32.02,5.3-15.68,32.87,44.92,58.39,55.66,25.4"/>
      <path class="cls-2" d="M1852.97,508.3c62.95,91.6-79.02,126.49-49.63,24.94"/>
      <path class="cls-2" d="M1426.82,271.75c11.35,75.93,83.45,17.05,60.83,1.49-18.51,2.14-42.64,1.95-60.83-1.49"/>
      <path class="cls-2" d="M461.53,301.27c-26.72-29.14-118,20.1-69.45,54.39,32.85,20.94,99.55-14.79,69.45-54.39Z"/>
      <path class="cls-2" d="M456.09,564.01c-9.2,59.75,73.14,45.98,68.11-6.39-5.39-11.08-37.57,9.43-68.11,6.39"/>
      <path class="cls-2" d="M-59.05,123.41c41.28,20.33,261.51-37.42,123.01-59.2"/>
      <path class="cls-2" d="M497.49,489.63c23.67,45.81,54.64,35.41,59.92,9.03,4.5-22.46-24.44-77.78-57.28-55.98"/>
      <path class="cls-2" d="M1876.31,233.02c39.22,90.52-56.41,177.46-78.34,53.96"/>
      <path class="cls-2" d="M1574.26,427.71c-11.95,42.85,42.94,49.86,52.71,9.98"/>
      <path class="cls-2" d="M506.52,420.89c-2.15-23.88-8.98,6.88-18.04,10.56-14.74,3.99-4.18-28.76-12.11-36.37-13.08,16.3-48.34,70.89-48.14,16.79l-40.62,50.3"/>
      <path class="cls-2" d="M1268.2,612.79c-36.58,26.26,10.57,79.66,40.82,58.35,31.94-26.66-6.5-72.54-40.82-58.35"/>
      <path class="cls-2" d="M1475.2,196.25c9.66,28.77,32.54,52.69,62.07,61.16"/>
      <path class="cls-2" d="M104.68,486.31c-53.75-7.54-10.09,97.73,0,0"/>
      <path class="cls-2" d="M747.64,563.5c3.49,64.51-34.83,67.54-33.89,2.64"/>
      <path class="cls-2" d="M120.74,421.11c-14.16-61.56-53.09-17.77-55.27,21.89"/>
      <path class="cls-2" d="M1855.67,503.58c-21.55,14.21-47.11,23.76-73.27,21.57"/>
      <path class="cls-2" d="M1407.62,534.23c-28.75-35.84-87.6-35.68-114.2,1.1"/>
      <path class="cls-2" d="M1262.52,531.48c38.3,14.35,76.94,28.78,112.55,48.46"/>
      <path class="cls-2" d="M486.87,175.7c-1.58,27.26-29.98,56.34-55.97,34.31"/>
      <path class="cls-2" d="M48.41,223.86c76.22-39.77,11.9,74.46,0,0"/>
      <path class="cls-2" d="M497.49,489.63c-6.4-26.92-28.73-47.25-51.18-29.3-3.86,3.09-7.15,13.15-7.15,13.15-20.67,58.39,70.9,109.52,58.26,23.3-.41-14.65-15.21-39.94,2.71-54.1"/>
      <path class="cls-2" d="M381.1,197.69c-1.66,31.2,44.11,32.55,53.22,5.66,12.74-39.39-32.47-17.38-5.18,6.21"/>
      <path class="cls-2" d="M639.65,359.68c40.66-7.29,53.55-16.68,78.34-34.69l-27.59,39.65c14.37,2.08,39.66-18.77,39.66-18.77,4.49,21.56-12.64,32.74-23.98,39.28"/>
      <path class="cls-2" d="M1122.26,476.69c22.48-36.53-29.99-33.41-1.76.44"/>
      <path class="cls-2" d="M193.15,383.03c-21.75-15.67-44.28,5.2-45.18,27.58"/>
      <path class="cls-2" d="M1086.15,449.44c-3.55,19.17,14.79,46.23,34.35,29.45"/>
      <path class="cls-2" d="M927.96,535.19c-15.8-29.91-39.25-20.23-32.43,12.14"/>
      <path class="cls-2" d="M1558.59,334.53c.81,21.78-33.98,30.83-34.64,6.21"/>
      <path class="cls-2" d="M1122.26,479.32c12.25,11.37,29.53,12.52,45.36,12.75"/>
      <path class="cls-2" d="M435.39,505.41c-12.31,6.97-24.84,13.53-37.26,20.28"/>
      <path class="cls-2" d="M777.87,526.5c11.75,13.81,25.48,26.66,40.93,36.9"/>
      <path class="cls-2" d="M969.67,583.4c1.35,19.21-22.87,42.15-32.43,15.17"/>
      <path class="cls-2" d="M1851.14,447.99c-13.22,7.52-26.86,14.3-39.87,22.2"/>
      <path class="cls-2" d="M992.3,516.98c-11.58-18.21-31.4-17.73-29.39,7.08"/>
      <path class="cls-2" d="M609.72,443.04c11.91,13.02,27.03,13.77,45.24,8.26"/>
      <path class="cls-2" d="M1135.23,498.02c10.25,6.67,21.97,10.21,34.35,10.55"/>
      <path class="cls-2" d="M1444.15,214.59c10.58,5.78,20.86,12.04,30.54,19.25"/>
      <path class="cls-2" d="M1679.65,201.47c-13.77,17.19,2.25,24.61,7.17,17.45,4.04-5.88,3.31-19.22-3.58-28.12-5.44-7.03-24.62-34.12-34.33-41.93,0,0,10.63,10.54,26.72,3.24,7.14-3.24,13.72,6.99,16.14,13.49s.79,13.75.79,13.75"/>
      <path class="cls-2" d="M1104.4,498.46c-10.07-.44-21.63,3.22-31.71,6.15"/>
      <path class="cls-2" d="M749.7,521.22c-7.68,7.46-16.75,18.51-22.89,28.11"/>
      <path class="cls-2" d="M1638.98,356.35c-13.06,20.71-44.4,11.96-36.14-13.28"/>
      <path class="cls-2" d="M134.47,164.17c-6.92-6.31-20.43-12.01-30.63-12.62"/>
      <path class="cls-2" d="M1797.69,166.06c-8.84-7.98-26.77-19.54-33.1-3.3"/>
      <path class="cls-2" d="M1492.95,390.94c1.31,8.98,1.78,19.55,5.33,27.48"/>
      <path class="cls-2" d="M1479.18,401.58c.88,9.06,3.33,18.23,6.66,26.6"/>
      <path class="cls-2" d="M247.98,391.79c-3.93,8.2-7.8,16.42-10.97,24.95"/>
      <path class="cls-2" d="M1866.77,160.31c-8.75-11.19-23.04-15.53-30.9-1.65"/>
      <path class="cls-2" d="M271.66,408.42c-7.96,5.25-16,10.39-23.25,16.64"/>
      <path class="cls-2" d="M1756.11,459.21c6.89,4.54,14.88,8.56,21.83,13.41"/>
      <path class="cls-2" d="M17.63,161.58c-9.79,2.54-19.63,16.35-23.68,24.43"/>
      <path class="cls-2" d="M23.12,177.28c2.08,10.77-5.89,15.9-9.24,3.88"/>
      <path class="cls-2" d="M1413.94,211.18c-5.77-1.82-11.44-3.97-17.28-5.61"/>
      <path class="cls-2" d="M96.06,172.42c4.38,4.6,7.83,12.1,10.7,0"/>
      <path class="cls-2" d="M1155.05,529.23c-8.6,1.82-8.09,25.76,3.72,23.14,6.98-1.55,5.63-22.31-3.29-23.03"/>
      <path d="M570.99,253.95c-4.07-4.27-.72-46.05,5.97-49.09,9.44-4.3,7.15,16.14,6.61,20.19s-6.96,28.83-9.14,29.66c-.82.31-2.83-.12-3.43-.75Z"/>
      <path d="M593.76,254.58c-9.73,8.97-4.14-20.79,1.14-25.36,11.73-10.15,4.43,20.22-1.14,25.36Z"/>
      <path d="M584.47,272.21c-4.76-1.44-3.51-11.36,2.21-10.69,7.5.89,3.4,12.39-2.21,10.69Z"/>
      <path d="M570.42,270.49c-4.76-1.44-3.51-11.36,2.21-10.69,7.5.89,3.4,12.39-2.21,10.69Z"/>
      <path class="cls-2" d="M1358.44,605.64s-2.23,6.61-5.73,11.39c-3.5,4.78-9.23,9.23-9.23,9.23"/>
      <path class="cls-2" d="M1342.62,602.28s-2.23,6.61-5.73,11.39c-3.5,4.78-9.23,9.23-9.23,9.23"/>
      <path class="cls-2" d="M1831.82,540.25s-2.57,12.21.7,27.83c3.19,15.24,9.19,24.81,9.19,24.81"/>
      <line class="cls-2" x1="1880.38" y1="477.03" x2="1873.47" y2="497.25"/>
      <line class="cls-2" x1="1892.93" y1="478.45" x2="1886.02" y2="498.67"/>
      <line class="cls-2" x1="1825.83" y1="481.77" x2="1816.41" y2="507.22"/>
      <line class="cls-2" x1="1812.56" y1="483.31" x2="1829.67" y2="504.29"/>
      <ellipse cx="131.25" cy="450.21" rx="12.02" ry="18.52" transform="translate(-109.02 47.49) rotate(-14.57)"/>
      <ellipse cx="199.94" cy="434.17" rx="12.02" ry="18.52" transform="translate(-102.78 64.25) rotate(-14.57)"/>
      <ellipse cx="419.48" cy="253.47" rx="8.62" ry="13.69" transform="translate(-43.11 91.53) rotate(-11.85)"/>
      <ellipse cx="481.4" cy="485.62" rx="7.36" ry="11.69" transform="translate(-146.05 213.8) rotate(-21.83)"/>
      <ellipse cx="534.46" cy="466.6" rx="7.36" ry="11.69" transform="translate(-135.17 232.17) rotate(-21.83)"/>
      <ellipse cx="666.51" cy="417.87" rx="10.79" ry="17.13" transform="translate(-96.87 227.87) rotate(-18.11)"/>
      <ellipse cx="708" cy="413" rx="10.79" ry="17.13" transform="translate(-102.8 292.85) rotate(-21.83)"/>
      <ellipse cx="941.99" cy="568.82" rx="6.85" ry="10.87" transform="translate(-144.78 396.1) rotate(-22.1)"/>
      <ellipse cx="992.3" cy="542.98" rx="6.85" ry="10.87" transform="translate(-131.36 413.13) rotate(-22.1)"/>
      <ellipse cx="1137.77" cy="518.59" rx="9.45" ry="5.95" transform="translate(576.14 1635.74) rotate(-87.81)"/>
      <ellipse cx="1254.31" cy="577.48" rx="11.84" ry="7.45" transform="translate(451.38 1700.91) rotate(-79.17)"/>
      <ellipse cx="1383.46" cy="239.84" rx="13.47" ry="8.48" transform="translate(887.88 1553.57) rotate(-79.17)"/>
      <ellipse cx="1437.41" cy="246.92" rx="15.35" ry="9.66" transform="translate(924.73 1612.31) rotate(-79.17)"/>
      <ellipse cx="1532.87" cy="388.95" rx="16.96" ry="10.68" transform="translate(862.77 1821.4) rotate(-79.17)"/>
      <ellipse cx="1588.8" cy="401.58" rx="16.96" ry="10.68" transform="translate(895.78 1886.59) rotate(-79.17)"/>
      <ellipse cx="1768.56" cy="494.08" rx="8.06" ry="12.81" transform="translate(-24.25 96.92) rotate(-3.12)"/>
      <ellipse cx="1788.85" cy="235.52" rx="10.6" ry="16.83" transform="translate(-10.16 97.64) rotate(-3.12)"/>
      <ellipse cx="1835.88" cy="238.01" rx="10.6" ry="16.83" transform="translate(-10.23 100.2) rotate(-3.12)"/>
      <ellipse cx="1297.89" cy="588.24" rx="11.84" ry="7.45" transform="translate(476.2 1752.44) rotate(-79.17)"/>
      <ellipse cx="1100.97" cy="517.18" rx="9.45" ry="5.95" transform="translate(542.14 1597.61) rotate(-87.81)"/>
      <ellipse cx="472.56" cy="244.05" rx="8.62" ry="13.69" transform="translate(-40.04 102.23) rotate(-11.85)"/>
    </g>
  </g>
</svg>