<svg width="167" height="175" viewBox="0 0 167 175" fill="none" xmlns="http://www.w3.org/2000/svg">
<g clip-path="url(#clip0_13891_7698)">
<path d="M162.127 146.631C157.852 157.564 136.462 156.138 92.2574 156.138C48.0528 156.138 32.7041 159.159 24.7628 146.631C12.4053 127.142 23.3376 30.416 92.2574 30.416C161.177 30.416 169.57 127.617 162.127 146.631Z" fill="#E4E5F0"/>
<path d="M132.267 71.5307C132.267 71.5307 125.61 63.9238 114.678 63.9238C103.745 63.9238 101.37 70.1056 94.2383 70.1056" stroke="#8F95B2" stroke-width="2.8504" stroke-miterlimit="10" stroke-linecap="round"/>
<path d="M68.7036 83.6478C71.2334 83.6478 73.2842 80.6175 73.2842 76.8796C73.2842 73.1416 71.2334 70.1113 68.7036 70.1113C66.1738 70.1113 64.123 73.1416 64.123 76.8796C64.123 80.6175 66.1738 83.6478 68.7036 83.6478Z" fill="#8F95B2"/>
<path d="M96.7954 85.7884C99.3252 85.7884 101.376 82.7582 101.376 79.0202C101.376 75.2822 99.3252 72.252 96.7954 72.252C94.2656 72.252 92.2148 75.2822 92.2148 79.0202C92.2148 82.7582 94.2656 85.7884 96.7954 85.7884Z" fill="#8F95B2"/>
<path d="M107.465 96.2517C107.465 96.2517 110.984 92.5274 116.427 90.809C121.863 89.0905 125.787 91.8412 125.787 91.8412" stroke="#8F95B2" stroke-width="2.8504" stroke-miterlimit="10" stroke-linecap="round"/>
<path d="M75.6826 50.117C75.6826 50.117 66.9202 46.0995 59.1902 40.7447C52.9205 36.3988 50.7504 30.7742 44.9734 30.2992C38.6978 29.7772 36.1113 34.6158 36.1113 34.6158" stroke="#8F95B2" stroke-width="2.8504" stroke-miterlimit="10" stroke-linecap="round"/>
<path d="M55.6527 96.2448C69.3025 96.2448 80.3678 85.1794 80.3678 71.5296C80.3678 57.8798 69.3025 46.8145 55.6527 46.8145C42.0029 46.8145 30.9375 57.8798 30.9375 71.5296C30.9375 85.1794 42.0029 96.2448 55.6527 96.2448Z" stroke="#8F95B2" stroke-width="2.8504" stroke-miterlimit="10" stroke-linecap="round"/>
<path d="M30.9374 68.6794C30.9374 68.6794 20.4801 65.829 17.6297 93.3946C16.0051 109.113 14.7793 120.485 14.7793 120.485" stroke="#8F95B2" stroke-width="2.8504" stroke-miterlimit="10" stroke-linecap="round"/>
<path d="M14.8318 120.613L8.99609 123.95L17.8816 126.367L14.8318 120.613Z" stroke="#8F95B2" stroke-width="2.8504" stroke-linecap="round" stroke-linejoin="round"/>
<path d="M141.688 11.1664C141.688 11.1664 142.145 5.43627 147.388 2.60933C153.57 -0.716129 161.599 3.58879 164.027 7.83506C167.828 14.4918 163.552 25.4242 153.095 23.9932C144.327 22.7967 143.113 29.2248 143.113 29.2248" stroke="#8F95B2" stroke-width="2.8504" stroke-miterlimit="10" stroke-linecap="round"/>
<path d="M144.537 40.1579C145.586 40.1579 146.437 39.3072 146.437 38.2577C146.437 37.2082 145.586 36.3574 144.537 36.3574C143.487 36.3574 142.637 37.2082 142.637 38.2577C142.637 39.3072 143.487 40.1579 144.537 40.1579Z" fill="#8F95B2"/>
<path d="M90.7488 122.985L92.9012 106.785C93.0537 105.648 92.4262 104.551 91.3646 104.111C86.2445 101.988 71.0893 96.7738 58.632 103.325C45.5178 110.216 43.248 121.102 43.248 121.102L47.4767 139.061L90.7429 122.985H90.7488Z" stroke="#8F95B2" stroke-width="2.8504" stroke-miterlimit="10"/>
<path d="M0.122255 110.486L22.2392 165.154C22.5383 165.899 23.3242 166.327 24.116 166.186C26.4444 165.775 31.7112 165.195 39.0718 166.473C46.8957 167.834 55.8047 174.403 55.8047 174.403L42.7726 119.078C42.7726 119.078 42.7433 107.958 25.8579 105.254C17.1015 103.853 5.56499 106.908 1.20728 108.216C0.251286 108.504 -0.24724 109.553 0.122255 110.48V110.486Z" fill="#8F95B2"/>
<path d="M58.6735 174.49C58.6735 174.49 67.5414 168.684 78.9957 168.244C86.937 167.939 92.5439 168.69 95.236 169.183C96.2154 169.358 97.1304 168.655 97.2242 167.669L101.371 122.474C101.424 121.887 101.177 121.318 100.708 120.966C97.9515 118.884 87.5939 111.981 69.7466 110.55C47.7294 108.791 44.0813 119.084 44.0813 119.084H42.7793L55.8114 174.408L58.6735 174.49Z" fill="#8F95B2"/>
</g>
<defs>
<clipPath id="clip0_13891_7698">
<rect width="166.819" height="174.49" fill="white"/>
</clipPath>
</defs>
</svg>
