<?xml version="1.0" encoding="UTF-8"?>
<svg id="Layer_2" data-name="Layer 2" xmlns="http://www.w3.org/2000/svg" viewBox="0 0 700.35 259.04">
  <defs>
    <style>
      .cls-1 {
        fill: none;
      }

      .cls-2 {
        fill: #292e40;
      }

      .cls-3 {
        fill: #fff;
      }

      .cls-4 {
        fill: #4bb476;
      }

      .cls-5 {
        fill: #3b415b;
      }

      .cls-6 {
        fill: #e03275;
      }

      .cls-7 {
        fill: #005faa;
      }
    </style>
  </defs>
  <g id="Layer_1-2" data-name="Layer 1">
    <g>
      <path class="cls-5" d="M175.52,70.34c3.97-.73,7.26-1.71,9.88-2.95v13.87c-2.54,1.31-5.86,2.35-9.94,3.12-4.08.77-8.21,1.16-12.37,1.16h-32.12V3.15h15.02v68.29h17.56c4,0,7.99-.36,11.96-1.1ZM208.51,90.04h-14.56v-44.95h-27.73v-14.79h27.73V1.3h14.56v88.75Z"/>
      <path class="cls-5" d="M269.29,84.56c-4.32.66-8.94.98-13.87.98h-36.63v-14.33h37.21c4.7,0,9.15-.31,13.35-.92,4.2-.62,7.64-1.54,10.34-2.77v14.21c-2.62,1.23-6.09,2.18-10.4,2.83ZM261.72,5.81c4.04,2.39,7.2,5.74,9.48,10.05,2.27,4.32,3.41,9.28,3.41,14.91s-1.14,10.61-3.41,14.96c-2.27,4.35-5.43,7.72-9.48,10.11-4.04,2.39-8.61,3.58-13.69,3.58s-9.78-1.19-13.87-3.58c-4.08-2.39-7.26-5.76-9.53-10.11-2.27-4.35-3.41-9.34-3.41-14.96s1.14-10.59,3.41-14.91c2.27-4.31,5.45-7.66,9.53-10.05,4.08-2.39,8.7-3.58,13.87-3.58s9.65,1.2,13.69,3.58ZM238.84,20.19c-2.27,2.81-3.41,6.34-3.41,10.57s1.13,7.96,3.41,10.69c2.27,2.74,5.33,4.1,9.19,4.1s6.82-1.39,9.13-4.16c2.31-2.77,3.47-6.32,3.47-10.63s-1.15-7.76-3.47-10.57c-2.31-2.81-5.35-4.22-9.13-4.22s-6.91,1.41-9.19,4.22ZM285.24,90.04V1.3h14.45v88.75h-14.45Z"/>
      <path class="cls-6" d="M328.68,22.45V5.23h68.06v17.22h-23.92v63.67h-20.11V22.45h-24.04Z"/>
      <path class="cls-4" d="M471.28,41.63l-20.8,36.4h-9.01l-20.57-35.24v43.33h-18.84V5.23h16.64l27.62,47.84,27.16-47.84h16.64l.12,80.89h-18.84l-.12-44.49Z"/>
      <path class="cls-7" d="M523.51,5.23v80.89h-20.11V5.23h20.11Z"/>
      <path class="cls-5" d="M551.71,69.71c1.85,1.85,2.77,4.24,2.77,7.17,0,1.46-.17,2.89-.52,4.28-.35,1.39-1.06,3.39-2.14,6.01l-5.43,10.58h-9.94l3.92-12.08c-1.77-.62-3.16-1.71-4.16-3.29-1-1.58-1.5-3.41-1.5-5.49,0-2.93.94-5.32,2.83-7.17,1.89-1.85,4.26-2.77,7.11-2.77s5.2.92,7.05,2.77Z"/>
      <path class="cls-5" d="M91.92,185.09c3.54-.54,6.55-1.31,9.01-2.31v13.52c-2.46,1.08-5.6,1.89-9.42,2.43-3.81.54-7.68.81-11.61.81h-19.3v-82.04h14.21v68.41h6.47c3.54,0,7.09-.27,10.63-.81ZM141.84,204.04h-13.64v-40.68h-9.13v39.17h-13.52v-86.9h13.52v33.16h9.13v-33.51h13.64v88.75Z"/>
      <path class="cls-5" d="M200.07,117.73v23.23c0,11.86-1.91,22.19-5.72,30.97-3.81,8.78-9.28,15.56-16.41,20.34-7.13,4.78-15.5,7.16-25.13,7.16v-14.56c10.4,0,18.39-3.87,23.98-11.61,5.58-7.74,8.38-18.47,8.38-32.18v-9.36h-32.36v-13.98h47.26ZM228.62,163.6v40.44h-14.56v-88.75h14.56v33.51h10.52v14.79h-10.52Z"/>
      <path class="cls-2" d="M281.77,160.42c-5.01,2.43-10.32,3.64-15.95,3.64v-17.22c4.62-.08,8.59-1.6,11.9-4.56,3.31-2.96,5.55-6.3,6.7-10h-17.56v-16.29h53.85v16.29h-17.33c-.31,1.54-.62,2.85-.92,3.93l21.49,12.36-8.9,14.56-20.11-12.36c-3.78,4.01-8.17,7.22-13.17,9.65ZM337.35,170.36c7.09,3.12,10.63,8.19,10.63,15.2s-3.54,12.08-10.63,15.2c-7.09,3.12-16.64,4.68-28.66,4.68s-21.44-1.56-28.48-4.68-10.57-8.18-10.57-15.2,3.53-12.08,10.57-15.2,16.54-4.68,28.48-4.68,21.57,1.56,28.66,4.68ZM322.5,188.96c3.51-.73,5.26-1.87,5.26-3.41s-1.77-2.58-5.31-3.35c-3.54-.77-8.13-1.16-13.75-1.16s-10.05.39-13.52,1.16c-3.47.77-5.2,1.89-5.2,3.35,0,1.54,1.71,2.68,5.14,3.41,3.43.73,7.95,1.1,13.58,1.1s10.3-.36,13.81-1.1ZM328.34,115.3h18.72v49.57h-18.72v-19.99h-9.82v-16.76h9.82v-12.83Z"/>
      <path class="cls-2" d="M378.03,167.3v15.25h16.29c3.93,0,7.88-.4,11.84-1.21,3.97-.81,7.3-1.83,10-3.06v17.68c-2.54,1.31-5.88,2.35-10,3.12-4.12.77-8.34,1.16-12.65,1.16h-34.2v-50.38h30.62v-15.02h-30.74v-17.79h49.34v50.27h-30.51ZM419.51,204.04v-88.75h18.84v88.75h-18.84Z"/>
      <path class="cls-2" d="M490.58,125.24v17.68h-45.3v-17.68h13.52v-10.28h18.6v10.28h13.17ZM483.47,152.62c3.89,4.78,5.84,11.71,5.84,20.8s-1.96,15.91-5.89,20.68c-3.93,4.78-8.98,7.16-15.14,7.16s-11.27-2.37-15.08-7.11c-3.81-4.74-5.72-11.65-5.72-20.74s1.91-16.12,5.72-20.86c3.81-4.74,8.84-7.11,15.08-7.11s11.3,2.39,15.2,7.17ZM471.39,181.51c.85-1.92,1.27-4.62,1.27-8.09s-.42-6.18-1.27-8.15c-.85-1.96-1.89-2.95-3.12-2.95s-2.23.98-3,2.95c-.77,1.96-1.16,4.68-1.16,8.15s.38,6.16,1.16,8.09c.77,1.93,1.77,2.89,3,2.89s2.27-.96,3.12-2.89ZM532.18,204.04h-17.1v-38.36h-4.85v36.86h-16.87v-86.9h16.87v31.32h4.85v-31.66h17.1v88.75Z"/>
      <path class="cls-2" d="M591.11,170.88h28.89v33.51h-76.5v-33.51h28.89v-3.58h-33.51v-15.14h85.63v15.14h-33.39v3.58ZM562.68,148c-6.32,1.31-13.02,2-20.11,2.08v-15.25c5.47-.08,10.84-.56,16.12-1.44,5.28-.88,9.38-2.02,12.31-3.41h-27.62v-15.02h76.73v15.02h-27.96c-.15.16-.31.42-.46.81l30.51,5.08-4.04,14.56-38.83-7.74c-4.78,2.23-10.32,4.01-16.64,5.32ZM562.1,185.56v4.16h39.17v-4.16h-39.17Z"/>
    </g>
    <g>
      <path class="cls-4" d="M639.13,218.24H251.31v-117.39h387.82v117.39ZM255.31,214.24h379.82v-109.39H255.31v109.39Z"/>
      <g>
        <rect class="cls-3" x="631.12" y="210.23" width="12.01" height="12.01"/>
        <path class="cls-4" d="M645.13,224.24h-16.01v-16.01h16.01v16.01ZM633.12,220.24h8.01v-8.01h-8.01v8.01Z"/>
      </g>
      <g>
        <rect class="cls-3" x="631.12" y="96.84" width="12.01" height="12.01"/>
        <path class="cls-4" d="M645.13,110.85h-16.01v-16.01h16.01v16.01ZM633.12,106.85h8.01v-8.01h-8.01v8.01Z"/>
      </g>
      <g>
        <rect class="cls-3" x="247.3" y="210.23" width="12.01" height="12.01"/>
        <path class="cls-4" d="M261.31,224.24h-16.01v-16.01h16.01v16.01ZM249.3,220.24h8.01v-8.01h-8.01v8.01Z"/>
      </g>
      <g>
        <rect class="cls-3" x="247.3" y="96.84" width="12.01" height="12.01"/>
        <path class="cls-4" d="M261.31,110.85h-16.01v-16.01h16.01v16.01ZM249.3,106.85h8.01v-8.01h-8.01v8.01Z"/>
      </g>
    </g>
    <path class="cls-4" d="M658.35,255.86c-.08,0-.16,0-.24,0-1.62-.1-2.98-1.16-3.46-2.71l-7.3-23.46c-.43-1.38-.06-2.87.96-3.88s2.51-1.39,3.88-.96l23.46,7.3c1.55.48,2.62,1.84,2.71,3.46.1,1.62-.8,3.1-2.28,3.76l-9.86,4.41-4.35,9.79c-.63,1.41-2,2.29-3.52,2.29ZM651.25,228.73l7.12,22.89,4.28-9.54c.39-.87,1.08-1.56,1.95-1.95l9.54-4.27-22.88-7.12Z"/>
    <rect class="cls-1" width="700.35" height="259.04"/>
  </g>
</svg>