<svg width="1920" height="1065" viewBox="0 0 1920 1065" fill="none" xmlns="http://www.w3.org/2000/svg">
<g clip-path="url(#clip0_13652_3196)">
<path d="M1080.6 497.539C1057.62 506.589 1029.2 471.579 965.92 403.419C902.64 335.269 876.02 315.929 883.96 285.749C896.32 238.799 1061.09 117.189 1159.76 223.449C1258.43 329.709 1120.57 481.789 1080.61 497.539H1080.6Z" fill="#4BB476"/>
<path d="M1071.07 250.63C1076.83 245.278 1078.57 237.777 1074.94 233.876C1071.32 229.974 1063.71 231.15 1057.95 236.502C1052.19 241.853 1050.45 249.354 1054.07 253.255C1057.7 257.157 1065.31 255.981 1071.07 250.63Z" fill="black"/>
<path d="M1101.52 283.426C1107.28 278.075 1109.02 270.574 1105.4 266.673C1101.77 262.771 1094.16 263.947 1088.4 269.298C1082.64 274.65 1080.9 282.151 1084.53 286.052C1088.15 289.954 1095.76 288.778 1101.52 283.426Z" fill="black"/>
<path d="M1103.93 301.389C1103.93 301.389 1093.39 303.659 1081.91 300.159C1070.43 296.659 1066.9 287.219 1066.9 287.219" stroke="black" stroke-width="6" stroke-miterlimit="10" stroke-linecap="round"/>
<path d="M1898.91 322.95C1885.8 343.88 1842.14 332.57 1750.75 315.3C1659.37 298.03 1626.46 298.27 1614.93 269.28C1597 224.16 1657.39 28.4799 1799.87 55.4099C1942.35 82.3399 1921.71 286.56 1898.9 322.96L1898.91 322.95Z" fill="#4BB476"/>
<path d="M1744.62 129.943C1746.08 122.215 1743.02 115.149 1737.79 114.161C1732.56 113.172 1727.14 118.635 1725.68 126.363C1724.22 134.091 1727.27 141.157 1732.51 142.145C1737.74 143.134 1743.16 137.671 1744.62 129.943Z" fill="black"/>
<path d="M1788.59 138.249C1790.05 130.522 1786.99 123.456 1781.76 122.467C1776.53 121.479 1771.11 126.942 1769.65 134.67C1768.19 142.398 1771.24 149.463 1776.47 150.452C1781.71 151.44 1787.13 145.977 1788.59 138.249Z" fill="black"/>
<path d="M1801.22 151.27C1801.22 151.27 1794.08 159.36 1782.77 163.35C1771.46 167.34 1763.01 161.85 1763.01 161.85" stroke="black" stroke-width="6" stroke-miterlimit="10" stroke-linecap="round"/>
<path d="M1695.94 1050.21C1686.94 1073.21 1641.94 1070.21 1548.94 1070.21C1455.94 1070.21 1423.65 1076.56 1406.94 1050.21C1380.94 1009.21 1403.94 805.711 1548.94 805.711C1693.94 805.711 1711.59 1010.21 1695.94 1050.21Z" fill="#E03275"/>
<path d="M1499.39 903.451C1504.71 903.451 1509.03 897.075 1509.03 889.211C1509.03 881.346 1504.71 874.971 1499.39 874.971C1494.07 874.971 1489.75 881.346 1489.75 889.211C1489.75 897.075 1494.07 903.451 1499.39 903.451Z" fill="black"/>
<path d="M1549.58 902.591C1554.9 902.591 1559.22 896.216 1559.22 888.351C1559.22 880.487 1554.9 874.111 1549.58 874.111C1544.26 874.111 1539.94 880.487 1539.94 888.351C1539.94 896.216 1544.26 902.591 1549.58 902.591Z" fill="black"/>
<path d="M1579.78 897.07C1579.78 897.07 1574.27 906.34 1563.89 912.37C1553.52 918.4 1544.2 914.56 1544.2 914.56" stroke="black" stroke-width="6" stroke-miterlimit="10" stroke-linecap="round"/>
<path d="M871.73 1059.99C854.23 1077.42 814.25 1056.56 729.12 1019.12C643.99 981.679 611.87 974.489 607.19 943.649C599.9 895.649 702.87 718.629 835.6 776.999C968.33 835.369 902.16 1029.68 871.73 1059.99Z" fill="#005FAA"/>
<path d="M761.467 835.776C764.633 828.577 763.249 821.003 758.376 818.86C753.502 816.716 746.985 820.815 743.819 828.014C740.652 835.213 742.036 842.786 746.91 844.93C751.784 847.073 758.301 842.975 761.467 835.776Z" fill="black"/>
<path d="M802.427 853.784C805.593 846.584 804.209 839.011 799.336 836.867C794.462 834.724 787.945 838.823 784.778 846.022C781.612 853.221 782.996 860.794 787.87 862.938C792.743 865.081 799.261 860.983 802.427 853.784Z" fill="black"/>
<path d="M825.18 890.769C823.95 898.579 812.17 902.109 794.03 898.719C775.89 895.329 766.88 886.479 768.11 878.669C769.34 870.859 781.69 867.429 799.26 870.719C816.83 873.999 826.41 882.959 825.18 890.769Z" stroke="black" stroke-width="6" stroke-miterlimit="10" stroke-linecap="round"/>
<path d="M1287.36 348.77C1263.77 356.07 1238.06 319.02 1180.08 246.3C1122.1 173.59 1097 152.3 1107.19 122.81C1123.04 76.9199 1296.49 -31.9701 1386.89 81.4099C1477.29 194.78 1328.4 336.08 1287.37 348.78L1287.36 348.77Z" fill="#005FAA"/>
<path d="M1293.91 98.9184C1300.06 94.0151 1302.35 86.6657 1299.04 82.5032C1295.72 78.3406 1288.04 78.9411 1281.89 83.8444C1275.74 88.7477 1273.45 96.0971 1276.77 100.26C1280.09 104.422 1287.76 103.822 1293.91 98.9184Z" fill="black"/>
<path d="M1321.8 133.917C1327.95 129.013 1330.25 121.664 1326.93 117.501C1323.61 113.339 1315.93 113.939 1309.78 118.842C1303.63 123.746 1301.34 131.095 1304.66 135.258C1307.98 139.42 1315.65 138.82 1321.8 133.917Z" fill="black"/>
<path d="M1324.79 177.299C1320.07 183.639 1308 181.299 1293.51 169.869C1279.02 158.439 1275.16 146.419 1279.88 140.069C1284.6 133.729 1297.12 136.429 1311.16 147.499C1325.19 158.569 1329.51 170.949 1324.79 177.299Z" stroke="black" stroke-width="6" stroke-miterlimit="10" stroke-linecap="round"/>
<path d="M1716.9 604.801C1725.59 627.921 1690.12 655.781 1620.98 717.971C1551.83 780.161 1532.07 806.471 1502.03 798.061C1455.28 784.961 1336.3 618.271 1444.11 521.311C1551.92 424.351 1701.8 564.591 1716.91 604.801H1716.9Z" fill="#42A9E0"/>
<path d="M1479.35 620.99C1483.3 617.429 1482.25 609.803 1476.99 603.956C1471.73 598.108 1464.26 596.255 1460.3 599.815C1456.34 603.375 1457.4 611.002 1462.66 616.849C1467.91 622.696 1475.39 624.55 1479.35 620.99Z" fill="black"/>
<path d="M1516.07 586.785C1520.03 583.224 1518.98 575.598 1513.72 569.751C1508.46 563.903 1500.99 562.05 1497.03 565.61C1493.07 569.17 1494.12 576.797 1499.38 582.644C1504.64 588.491 1512.12 590.345 1516.07 586.785Z" fill="black"/>
<path d="M1508.9 618.57L1543.45 567.98C1543.45 567.98 1567.72 589.951 1553.86 610.151C1540 630.351 1508.9 618.57 1508.9 618.57Z" stroke="black" stroke-width="6" stroke-linecap="round" stroke-linejoin="round"/>
<path d="M296.55 1047.63C287.55 1070.63 242.55 1067.63 149.55 1067.63C56.5501 1067.63 24.2601 1073.98 7.55006 1047.63C-18.4499 1006.63 4.55006 803.131 149.55 803.131C294.55 803.131 312.2 1007.63 296.55 1047.63Z" fill="#4BB476"/>
<path d="M99.56 900.871C104.884 900.871 109.2 894.495 109.2 886.631C109.2 878.766 104.884 872.391 99.56 872.391C94.236 872.391 89.92 878.766 89.92 886.631C89.92 894.495 94.236 900.871 99.56 900.871Z" fill="black"/>
<path d="M144.31 900.871C149.634 900.871 153.95 894.495 153.95 886.631C153.95 878.766 149.634 872.391 144.31 872.391C138.986 872.391 134.67 878.766 134.67 886.631C134.67 894.495 138.986 900.871 144.31 900.871Z" fill="black"/>
<path d="M168.68 897.07C168.68 897.07 163.17 906.34 152.79 912.37C142.42 918.4 133.1 914.56 133.1 914.56" stroke="black" stroke-width="6" stroke-miterlimit="10" stroke-linecap="round"/>
<path d="M606.49 1047.63C597.49 1070.63 552.49 1067.63 459.49 1067.63C366.49 1067.63 334.2 1073.98 317.49 1047.63C291.49 1006.63 314.49 803.131 459.49 803.131C604.49 803.131 622.14 1007.63 606.49 1047.63Z" fill="#FFC400"/>
<path d="M409.5 900.871C414.824 900.871 419.14 894.495 419.14 886.631C419.14 878.766 414.824 872.391 409.5 872.391C404.176 872.391 399.86 878.766 399.86 886.631C399.86 894.495 404.176 900.871 409.5 900.871Z" fill="black"/>
<path d="M459.69 900.001C465.014 900.001 469.33 893.626 469.33 885.761C469.33 877.897 465.014 871.521 459.69 871.521C454.366 871.521 450.05 877.897 450.05 885.761C450.05 893.626 454.366 900.001 459.69 900.001Z" fill="black"/>
<path d="M446.97 810.43C446.97 810.43 449.6 806.17 454.66 805.38C459.72 804.59 463.81 809 463.81 809" stroke="black" stroke-width="6" stroke-miterlimit="10" stroke-linecap="round"/>
<path d="M391.37 819.651C391.37 819.651 394 815.391 399.06 814.601C404.12 813.811 408.21 818.221 408.21 818.221" stroke="black" stroke-width="6" stroke-miterlimit="10" stroke-linecap="round"/>
<path d="M482.71 916.862C484.73 924.512 475.37 932.482 457.4 936.682C439.43 940.882 427.62 936.412 425.6 928.762C423.58 921.112 433.5 913.012 450.91 908.942C468.32 904.872 480.69 909.212 482.71 916.862Z" stroke="black" stroke-width="6" stroke-miterlimit="10" stroke-linecap="round"/>
<path d="M327.07 884.151C305.23 896.061 271.78 864.37 198.67 803.67C125.56 742.97 96.1 726.811 99.88 695.531C105.76 646.861 254.46 504.54 368.45 599.18C482.44 693.82 365.05 863.441 327.07 884.151Z" fill="#FF7B01"/>
<path d="M283.127 637.393C288.175 631.312 288.878 623.569 284.697 620.097C280.515 616.626 273.033 618.741 267.985 624.822C262.937 630.903 262.234 638.646 266.415 642.117C270.596 645.589 278.078 643.474 283.127 637.393Z" fill="black"/>
<path d="M318.305 666.586C323.353 660.506 324.056 652.762 319.875 649.291C315.693 645.819 308.211 647.935 303.163 654.015C298.115 660.096 297.412 667.84 301.593 671.311C305.775 674.782 313.257 672.667 318.305 666.586Z" fill="black"/>
<path d="M268.27 665.801L324.37 693.431C324.37 693.431 306.1 720.791 283.69 709.701C261.28 698.611 268.27 665.801 268.27 665.801Z" stroke="black" stroke-width="6" stroke-linecap="round" stroke-linejoin="round"/>
<path d="M1164.89 732.101C1164.57 756.801 1121.39 769.841 1034.35 802.591C947.31 835.341 919.32 852.661 894.4 833.881C855.63 804.661 805.48 606.101 941.19 555.031C1076.9 503.961 1165.44 689.141 1164.88 732.091L1164.89 732.101Z" fill="#E03275"/>
<path d="M929.242 663.987C934.225 662.112 936.02 654.625 933.25 647.264C930.48 639.904 924.196 635.457 919.213 637.332C914.23 639.207 912.435 646.694 915.205 654.054C917.975 661.415 924.259 665.862 929.242 663.987Z" fill="black"/>
<path d="M975.911 645.507C980.894 643.632 982.688 636.145 979.918 628.784C977.149 621.423 970.864 616.976 965.881 618.851C960.898 620.726 959.104 628.213 961.874 635.574C964.643 642.935 970.928 647.382 975.911 645.507Z" fill="black"/>
<path d="M1002.25 629.68C1002.25 629.68 1000.36 640.3 992.77 649.6C985.18 658.9 975.11 658.59 975.11 658.59" stroke="black" stroke-width="6" stroke-miterlimit="10" stroke-linecap="round"/>
<path d="M1834.35 654.619C1813.04 667.109 1779.56 636.899 1706.53 579.319C1633.5 521.739 1604.21 506.739 1607.4 475.699C1612.36 427.409 1756.41 281.829 1870.28 371.599C1984.15 461.369 1871.41 632.889 1834.35 654.619Z" fill="#005FAA"/>
<path d="M1783.79 409.915C1788.66 403.739 1789.22 396.06 1785.04 392.764C1780.85 389.468 1773.52 391.803 1768.65 397.979C1763.78 404.155 1763.22 411.834 1767.4 415.13C1771.59 418.426 1778.92 416.091 1783.79 409.915Z" fill="black"/>
<path d="M1818.93 437.611C1823.8 431.434 1824.36 423.756 1820.18 420.46C1816 417.164 1808.66 419.498 1803.79 425.675C1798.93 431.851 1798.37 439.529 1802.55 442.825C1806.73 446.122 1814.07 443.787 1818.93 437.611Z" fill="black"/>
<path d="M1831.69 479.138C1828.54 486.388 1816.26 486.858 1799.54 479.038C1782.82 471.208 1776.32 460.388 1779.47 453.138C1782.62 445.888 1795.43 445.658 1811.62 453.238C1827.81 460.818 1834.84 471.888 1831.69 479.138Z" stroke="black" stroke-width="6" stroke-miterlimit="10" stroke-linecap="round"/>
<path d="M976.61 414.949C991.09 434.959 964.24 471.189 913.96 549.429C863.68 627.669 851.56 658.259 820.36 658.069C771.81 657.779 613.05 528.399 691.45 406.419C769.84 284.439 951.42 380.149 976.61 414.949Z" fill="#42A9E0"/>
<path d="M751.793 493.352C754.672 488.873 751.642 481.795 745.026 477.543C738.41 473.291 730.714 473.474 727.835 477.953C724.956 482.432 727.986 489.51 734.602 493.762C741.218 498.014 748.915 497.83 751.793 493.352Z" fill="black"/>
<path d="M778.2 450.662C781.079 446.183 778.049 439.106 771.434 434.853C764.818 430.601 757.121 430.785 754.242 435.264C751.364 439.742 754.393 446.82 761.009 451.072C767.625 455.325 775.322 455.141 778.2 450.662Z" fill="black"/>
<path d="M779.62 483.129L799.6 425.209C799.6 425.209 828.8 439.999 820.77 463.139C812.74 486.279 779.62 483.129 779.62 483.129Z" stroke="black" stroke-width="6" stroke-linecap="round" stroke-linejoin="round"/>
<path d="M1478.11 808.729C1481.58 833.179 1440.92 852.699 1359.94 898.419C1278.96 944.149 1253.96 965.549 1226.46 950.819C1183.66 927.899 1103.63 739.389 1229.89 668.099C1356.15 596.809 1472.07 766.199 1478.11 808.729Z" fill="#4BB476"/>
<path d="M1234.41 777.842C1239.05 775.224 1239.67 767.55 1235.81 760.702C1231.94 753.854 1225.05 750.424 1220.41 753.042C1215.77 755.659 1215.15 763.333 1219.02 770.181C1222.88 777.03 1229.78 780.459 1234.41 777.842Z" fill="black"/>
<path d="M1273.38 755.844C1278.02 753.226 1278.64 745.552 1274.77 738.704C1270.91 731.856 1264.01 728.426 1259.38 731.044C1254.74 733.661 1254.12 741.335 1257.98 748.183C1261.85 755.032 1268.74 758.461 1273.38 755.844Z" fill="black"/>
<path d="M1292.74 740.51C1292.74 740.51 1292.5 751.29 1286.43 761.64C1280.36 771.99 1270.36 773.23 1270.36 773.23" stroke="black" stroke-width="6" stroke-miterlimit="10" stroke-linecap="round"/>
<path d="M1389.63 638.79C1377.78 660.46 1333.52 651.76 1241.28 639.92C1149.04 628.09 1116.2 630.28 1102.98 602.01C1082.41 558.03 1131.12 359.12 1274.94 377.57C1418.76 396.02 1410.25 601.11 1389.63 638.79Z" fill="#FFC400"/>
<path d="M1224.28 455.245C1225.28 447.444 1221.81 440.571 1216.53 439.894C1211.24 439.217 1206.15 444.991 1205.15 452.792C1204.15 460.592 1207.62 467.465 1212.9 468.143C1218.18 468.82 1223.27 463.046 1224.28 455.245Z" fill="black"/>
<path d="M1274.16 460.774C1275.16 452.974 1271.69 446.101 1266.41 445.423C1261.13 444.746 1256.04 450.52 1255.04 458.321C1254.03 466.122 1257.5 472.994 1262.78 473.672C1268.07 474.349 1273.16 468.575 1274.16 460.774Z" fill="black"/>
<path d="M1261.59 383.22C1261.59 383.22 1264.74 379.33 1269.86 379.19C1274.97 379.05 1278.48 383.95 1278.48 383.95" stroke="black" stroke-width="6" stroke-miterlimit="10" stroke-linecap="round"/>
<path d="M1205.27 385.291C1205.27 385.291 1208.42 381.401 1213.54 381.261C1218.65 381.121 1222.16 386.021 1222.16 386.021" stroke="black" stroke-width="6" stroke-miterlimit="10" stroke-linecap="round"/>
<path d="M1283.49 493.33C1284.52 501.17 1274.22 507.89 1255.86 509.77C1237.5 511.65 1226.36 505.71 1225.33 497.87C1224.3 490.03 1235.17 483.25 1252.96 481.43C1270.74 479.61 1282.46 485.49 1283.49 493.33Z" stroke="black" stroke-width="6" stroke-miterlimit="10" stroke-linecap="round"/>
<path d="M383.05 317.56C363.11 332.13 326.76 305.44 248.3 255.5C169.84 205.56 139.19 193.58 139.25 162.38C139.33 113.83 268.01 -45.4904 390.33 32.3696C512.65 110.23 417.74 292.23 383.05 317.57V317.56Z" fill="#FFC400"/>
<path d="M311.459 81.1456C315.682 74.5112 315.465 66.8153 310.974 63.9563C306.482 61.0973 299.418 64.1578 295.195 70.7921C290.971 77.4265 291.188 85.1224 295.68 87.9814C300.171 90.8404 307.235 87.7799 311.459 81.1456Z" fill="black"/>
<path d="M354.261 107.37C358.485 100.736 358.267 93.0399 353.776 90.1809C349.285 87.3219 342.22 90.3824 337.997 97.0167C333.774 103.651 333.991 111.347 338.482 114.206C342.973 117.065 350.038 114.005 354.261 107.37Z" fill="black"/>
<path d="M375.84 31.7996C375.84 31.7996 380.35 29.6196 385.04 31.6696C389.73 33.7196 390.82 39.6396 390.82 39.6396" stroke="black" stroke-width="6" stroke-miterlimit="10" stroke-linecap="round"/>
<path d="M323.98 9.71952C323.98 9.71952 328.49 7.53952 333.18 9.58952C337.87 11.6395 338.96 17.5595 338.96 17.5595" stroke="black" stroke-width="6" stroke-miterlimit="10" stroke-linecap="round"/>
<path d="M348.84 140.779C346.43 148.309 334.26 150.019 316.84 143.909C299.42 137.799 291.86 127.689 294.27 120.159C296.68 112.629 309.4 111.119 326.27 117.029C343.14 122.939 351.25 133.249 348.84 140.779Z" stroke="black" stroke-width="6" stroke-miterlimit="10" stroke-linecap="round"/>
<path d="M68.28 510.43C88.42 524.72 124.4 497.52 202.15 446.49C279.9 395.46 310.38 383.05 309.89 351.86C309.13 303.32 178.24 145.81 57.02 225.37C-64.2 304.93 33.25 485.58 68.28 510.44V510.43Z" fill="#005FAA"/>
<path d="M155.741 277.619C160.192 274.698 160.302 266.999 155.986 260.425C151.671 253.85 144.564 250.888 140.113 253.81C135.662 256.731 135.553 264.429 139.868 271.004C144.184 277.579 151.29 280.541 155.741 277.619Z" fill="black"/>
<path d="M118.333 302.18C122.784 299.258 122.894 291.56 118.578 284.985C114.263 278.411 107.156 275.449 102.705 278.37C98.2545 281.292 98.1448 288.99 102.46 295.565C106.776 302.14 113.882 305.101 118.333 302.18Z" fill="black"/>
<path d="M86.14 335.849C88.65 343.349 100.85 344.879 118.18 338.529C135.51 332.179 142.93 321.959 140.42 314.459C137.91 306.959 125.17 305.629 108.38 311.779C91.59 317.929 83.63 328.349 86.14 335.849Z" stroke="black" stroke-width="6" stroke-miterlimit="10" stroke-linecap="round"/>
<path d="M420.16 270.07C412.39 293.51 448.93 319.95 520.48 379.36C592.03 438.77 612.82 464.28 642.51 454.68C688.7 439.74 801 268.48 689.44 175.86C577.88 83.2398 433.67 229.3 420.16 270.08V270.07Z" fill="#42A9E0"/>
<path d="M674.662 272.113C679.686 266.062 680.437 258.4 676.341 254.999C672.245 251.598 664.852 253.747 659.828 259.798C654.804 265.849 654.053 273.511 658.149 276.912C662.245 280.312 669.638 278.164 674.662 272.113Z" fill="black"/>
<path d="M636.606 239.387C641.629 233.336 642.381 225.673 638.285 222.273C634.188 218.872 626.795 221.02 621.772 227.071C616.748 233.122 615.996 240.784 620.093 244.185C624.189 247.586 631.582 245.438 636.606 239.387Z" fill="black"/>
<path d="M628.55 275.61L592.02 226.43C592.02 226.43 568.64 249.35 583.29 268.98C597.94 288.61 628.55 275.61 628.55 275.61Z" stroke="black" stroke-width="6" stroke-linecap="round" stroke-linejoin="round"/>
<path d="M910.88 1047.63C919.88 1070.63 964.88 1067.63 1057.88 1067.63C1150.88 1067.63 1183.17 1073.98 1199.88 1047.63C1225.88 1006.63 1202.88 803.131 1057.88 803.131C912.88 803.131 895.23 1007.63 910.88 1047.63Z" fill="#FF7B01"/>
<path d="M1107.87 900.871C1113.19 900.871 1117.51 894.495 1117.51 886.631C1117.51 878.766 1113.19 872.391 1107.87 872.391C1102.55 872.391 1098.23 878.766 1098.23 886.631C1098.23 894.495 1102.55 900.871 1107.87 900.871Z" fill="black"/>
<path d="M1063.12 900.871C1068.44 900.871 1072.76 894.495 1072.76 886.631C1072.76 878.766 1068.44 872.391 1063.12 872.391C1057.8 872.391 1053.48 878.766 1053.48 886.631C1053.48 894.495 1057.8 900.871 1063.12 900.871Z" fill="black"/>
<path d="M1091.67 917.821L1032.15 903.311C1032.15 903.311 1028.8 935.871 1052.61 941.631C1076.42 947.381 1091.67 917.821 1091.67 917.821Z" stroke="black" stroke-width="6" stroke-linecap="round" stroke-linejoin="round"/>
<path d="M787.24 310.011C808.1 323.231 842.61 294.201 917.6 239.191C992.59 184.181 1022.38 170.201 1020.27 139.071C1016.98 90.6309 878.07 -59.8491 761.16 25.9109C644.24 111.671 750.97 287.011 787.24 310.001V310.011Z" fill="#FF7B01"/>
<path d="M859.284 75.183C863.577 72.0341 863.286 64.3406 858.635 57.9991C853.984 51.6576 846.733 49.0695 842.44 52.2184C838.147 55.3673 838.437 63.0607 843.089 69.4022C847.74 75.7437 854.991 78.3319 859.284 75.183Z" fill="black"/>
<path d="M823.207 101.646C827.5 98.4969 827.209 90.8035 822.558 84.462C817.906 78.1205 810.655 75.5323 806.362 78.6812C802.07 81.8301 802.36 89.5236 807.012 95.8651C811.663 102.207 818.914 104.795 823.207 101.646Z" fill="black"/>
<path d="M856.23 98.4102L799.66 121.92C799.66 121.92 816.22 150.16 838.82 140.71C861.42 131.27 856.23 98.4102 856.23 98.4102Z" stroke="black" stroke-width="6" stroke-linecap="round" stroke-linejoin="round"/>
<path d="M228.6 456.371C220.83 479.811 257.37 506.251 328.92 565.661C400.47 625.071 421.26 650.581 450.95 640.981C497.14 626.041 609.44 454.781 497.88 362.161C386.32 269.541 242.11 415.601 228.6 456.381V456.371Z" fill="#E03275"/>
<path d="M490.082 464.201C495.106 458.15 495.857 450.488 491.761 447.087C487.665 443.686 480.272 445.835 475.248 451.886C470.224 457.937 469.473 465.599 473.569 469C477.665 472.4 485.058 470.252 490.082 464.201Z" fill="black"/>
<path d="M452.026 431.474C457.049 425.423 457.801 417.761 453.705 414.36C449.609 410.96 442.215 413.108 437.192 419.159C432.168 425.21 431.416 432.872 435.513 436.273C439.609 439.674 447.002 437.525 452.026 431.474Z" fill="black"/>
<path d="M415.79 412.74C415.79 412.74 414.11 423.39 418.24 434.66C422.37 445.93 431.99 448.93 431.99 448.93" stroke="black" stroke-width="6" stroke-miterlimit="10" stroke-linecap="round"/>
<path d="M604.31 878.629C628.33 884.369 651.55 845.699 704.63 769.339C757.71 692.979 781.35 670.089 769.25 641.329C750.42 596.579 570.2 499.319 487.44 618.379C404.68 737.439 562.53 868.659 604.31 878.629Z" fill="#4BB476"/>
<path d="M596.235 633.072C599.274 628.701 596.502 621.518 590.044 617.03C583.586 612.541 575.887 612.447 572.849 616.818C569.81 621.19 572.582 628.373 579.04 632.861C585.498 637.35 593.197 637.444 596.235 633.072Z" fill="black"/>
<path d="M570.692 669.83C573.731 665.458 570.959 658.276 564.501 653.787C558.043 649.299 550.345 649.204 547.306 653.576C544.268 657.948 547.04 665.131 553.498 669.619C559.956 674.108 567.654 674.202 570.692 669.83Z" fill="black"/>
<path d="M553.67 687.709C553.67 687.709 564.43 688.479 575.3 683.399C586.17 678.319 588.34 668.479 588.34 668.479" stroke="black" stroke-width="6" stroke-miterlimit="10" stroke-linecap="round"/>
<path d="M1619.03 721.919C1601.69 739.509 1622.76 779.379 1660.64 864.319C1698.52 949.259 1705.88 981.329 1736.75 985.859C1784.79 992.899 1961.27 889.009 1902.2 756.579C1843.14 624.149 1649.18 691.329 1619.03 721.919Z" fill="#FFC400"/>
<path d="M1850.23 844.975C1857.42 841.771 1861.48 835.232 1859.31 830.37C1857.14 825.508 1849.56 824.163 1842.38 827.367C1835.2 830.571 1831.13 837.11 1833.3 841.972C1835.47 846.834 1843.05 848.178 1850.23 844.975Z" fill="black"/>
<path d="M1830.58 798.775C1837.76 795.572 1841.83 789.033 1839.66 784.171C1837.49 779.308 1829.91 777.964 1822.73 781.168C1815.55 784.372 1811.48 790.91 1813.65 795.773C1815.82 800.635 1823.4 801.979 1830.58 798.775Z" fill="black"/>
<path d="M1900.63 770.989C1900.63 770.989 1903.45 766.849 1902.11 761.909C1900.77 756.969 1895.07 755.029 1895.07 755.029" stroke="black" stroke-width="6" stroke-miterlimit="10" stroke-linecap="round"/>
<path d="M1914.86 825.53C1914.86 825.53 1917.68 821.39 1916.34 816.45C1915 811.51 1909.3 809.57 1909.3 809.57" stroke="black" stroke-width="6" stroke-miterlimit="10" stroke-linecap="round"/>
<path d="M1788.88 781.71C1781.08 782.98 1777.6 794.78 1781.09 812.9C1784.57 831.03 1793.47 839.99 1801.27 838.71C1809.07 837.44 1812.44 825.07 1809.06 807.52C1805.69 789.96 1796.68 780.43 1788.88 781.71Z" stroke="black" stroke-width="6" stroke-miterlimit="10" stroke-linecap="round"/>
<path d="M1670.04 379.409C1671.46 404.069 1629.31 420.109 1544.78 458.909C1460.26 497.709 1433.56 516.949 1407.38 499.969C1366.65 473.549 1302.66 279.009 1434.44 218.519C1566.22 158.029 1667.57 336.529 1670.03 379.409H1670.04Z" fill="#FF7B01"/>
<path d="M1429.76 328.091C1434.59 325.87 1435.86 318.275 1432.57 311.128C1429.29 303.98 1422.71 299.987 1417.87 302.208C1413.03 304.43 1411.77 312.024 1415.05 319.172C1418.33 326.319 1424.92 330.312 1429.76 328.091Z" fill="black"/>
<path d="M1470.43 309.425C1475.26 307.204 1476.53 299.609 1473.25 292.462C1469.96 285.314 1463.38 281.321 1458.54 283.542C1453.71 285.764 1452.44 293.358 1455.72 300.506C1459.01 307.653 1465.59 311.646 1470.43 309.425Z" fill="black"/>
<path d="M1451.58 336.86L1499.62 298.84C1499.62 298.84 1516.25 327.04 1497.01 342.2C1477.77 357.36 1451.58 336.86 1451.58 336.86Z" stroke="black" stroke-width="6" stroke-linecap="round" stroke-linejoin="round"/>
</g>
<defs>
<clipPath id="clip0_13652_3196">
<rect width="1921.88" height="1070.88" fill="white" transform="translate(-2)"/>
</clipPath>
</defs>
</svg>
