<svg width="746" height="642" viewBox="0 0 746 642" fill="none" xmlns="http://www.w3.org/2000/svg">
<rect width="746" height="774" rx="40" fill="#F7F7FA"/>
<path d="M92.5703 272.453C92.5312 276.926 95.6562 281.066 101.047 282.805L99.1719 285.773C95.207 284.445 92.2773 281.73 90.7344 278.352C89.1914 282.121 86.125 285.129 81.9844 286.594L80.0703 283.586C85.5586 281.789 88.8008 277.316 88.8203 272.492V271.633H81.1641V268.625H100.109V271.633H92.5703V272.453ZM85.5391 300.891V288.352H107.883V300.891H85.5391ZM89.1719 297.883H104.211V291.281H89.1719V297.883ZM104.172 286.828V266.32H107.883V274.797H112.961V277.844H107.883V286.828H104.172ZM125.383 269.25C125.344 276.496 123.293 282.16 117.375 286.828L114.875 284.445C119.309 281.125 121.359 277.492 121.828 272.297H116.008V269.25H125.383ZM120.031 300.578V289.797H123.742V297.57H143.781V300.578H120.031ZM124.719 286.047C129.406 282.219 131.301 277.863 131.73 272.297H126.711V269.25H135.266C135.246 276.75 133.488 283.137 127.219 288.352L124.719 286.047ZM138.742 291.945V266.281H142.453V277.219H147.531V280.383H142.453V291.945H138.742ZM155.812 295.305L152.688 306.086H149.367L151.438 295.305H155.812ZM198.703 266.32V287.141H194.992V278.273H188.469V275.227H194.992V266.32H198.703ZM169.523 283.977C174.953 282.082 178.293 277.355 178.273 272.531V271.75H170.695V268.742H189.562V271.75H182.062V272.492C182.043 276.926 185.207 281.242 190.5 283.039L188.586 285.969C184.66 284.621 181.77 281.809 180.246 278.352C178.723 282.258 175.656 285.402 171.477 286.945L169.523 283.977ZM175.148 294.719C175.129 290.559 179.621 288.137 186.984 288.117C194.309 288.137 198.801 290.559 198.82 294.719C198.801 298.879 194.309 301.301 186.984 301.32C179.621 301.301 175.129 298.879 175.148 294.719ZM178.82 294.719C178.801 297.082 181.848 298.43 186.984 298.391C192.082 298.43 195.129 297.082 195.148 294.719C195.129 292.336 192.082 290.988 186.984 291.008C181.848 290.988 178.801 292.336 178.82 294.719ZM231.594 266.32V273.625H236.672V276.711H231.594V284.016H227.883V266.32H231.594ZM205.461 282.375V268.195H221.828V282.375H205.461ZM208.977 288.508V285.617H231.594V294.484H212.688V297.922H232.805V300.891H209.055V291.711H227.922V288.508H208.977ZM209.094 279.406H218.195V271.164H209.094V279.406ZM267.062 268.117C267.062 277.492 260.93 283.898 250.305 286.633L248.391 282.766C256.398 280.715 260.93 276.77 261.711 271.984H250.461V268.117H267.062ZM254.25 301.164V287.375H277.961V301.164H254.25ZM259.211 297.258H273.078V291.281H259.211V297.258ZM272.961 285.93V266.086H277.961V285.93H272.961ZM301.945 268.898V286.047H284.562V268.898H301.945ZM288.703 300.812V289.016H293.742V296.789H313.469V300.812H288.703ZM289.484 282.102H296.984V272.844H289.484V282.102ZM307.531 291.359V266.086H312.531V291.359H307.531ZM336.203 268.82C336.184 273.02 340.48 277.648 348.625 278.664L346.672 282.688C340.461 281.789 335.91 278.918 333.586 275.07C331.242 278.898 326.711 281.789 320.578 282.688L318.586 278.664C326.672 277.648 330.949 273.02 330.969 268.82V267.102H336.203V268.82ZM317.336 289.445V285.383H349.758V289.445H335.93V301.594H331.008V289.445H317.336ZM381.125 266.32V286.086H377.453V266.32H381.125ZM354.289 283.742V268.352H358V280.617C363.645 280.578 368.586 280.188 373.859 279.055L374.367 282.141C368.586 283.312 363.312 283.723 357.18 283.742H354.289ZM358.195 300.852V287.688H381.125V300.852H358.195ZM361.828 297.883H377.492V290.617H361.828V297.883ZM398.117 268.82C403.645 268.801 407.629 272.219 407.648 277.141C407.629 282.062 403.645 285.48 398.117 285.5C392.609 285.48 388.566 282.062 388.586 277.141C388.566 272.219 392.609 268.801 398.117 268.82ZM386.906 290.773C393.273 290.773 402.102 290.715 409.758 289.602L410.031 292.297C402.121 293.82 393.625 293.859 387.375 293.859L386.906 290.773ZM392.258 277.141C392.219 280.246 394.719 282.258 398.117 282.258C401.516 282.258 404.016 280.246 404.016 277.141C404.016 274.074 401.516 272.023 398.117 272.023C394.719 272.023 392.219 274.074 392.258 277.141ZM411.945 301.398V266.32H415.656V301.398H411.945ZM460.07 266.359V292.141H456.359V266.359H460.07ZM431.633 285.148C437.043 283.449 440.363 279.133 440.344 274.484V273.781H432.57V270.812H440.344V266.477H444.094V270.812H451.789V273.781H444.055V274.484C444.035 278.879 447.434 282.902 452.844 284.523L451.047 287.453C446.926 286.184 443.859 283.547 442.277 280.168C440.715 283.82 437.648 286.711 433.469 288.039L431.633 285.148ZM437.18 300.578V289.758H440.93V297.57H461.125V300.578H437.18ZM493.469 268.508V271.594C493.469 274.914 493.469 278.527 492.492 283.508H497.531V286.555H483.352V301.359H479.602V286.555H465.617V283.508H488.742C489.777 278.508 489.777 274.855 489.797 271.594V271.555H469.523V268.508H493.469ZM527.453 266.32V280.266H532.883V283.352H527.453V301.281H523.742V266.32H527.453ZM500.227 291.945C508.996 287.57 513.762 281.242 514.523 273.078H501.984V269.992H518.312C518.273 280.109 513.82 289.152 502.297 294.836L500.227 291.945ZM562.258 268.664V283.742H545.891V268.664H562.258ZM547.922 298.312C553.918 297.453 558.391 294.504 558.957 291.086H549.328V288.117H572.57V291.086H562.98C563.508 294.426 568.059 297.453 574.016 298.352L572.648 301.203C567.336 300.383 562.961 297.941 560.93 294.621C558.938 297.961 554.602 300.363 549.289 301.164L547.922 298.312ZM549.523 280.773H558.625V271.633H549.523V280.773ZM568.312 286.164V266.32H572.023V274.445H577.102V277.531H572.023V286.164H568.312ZM611.789 280.07V283.117H606.359V301.281H602.648V266.32H606.359V280.07H611.789ZM580.422 292.492V269.719H584.094V289.406C588.977 289.387 594.074 288.977 599.641 287.844L600.07 290.969C594.074 292.16 588.566 292.512 583.312 292.492H580.422ZM645.695 293.859V296.945H613.664V293.859H621.32V284.719C618.449 283.137 616.691 280.637 616.711 277.492C616.691 271.984 622.102 268.371 629.602 268.352C637.121 268.371 642.531 271.984 642.531 277.492C642.531 280.578 640.852 283.059 638.039 284.641V293.859H645.695ZM620.305 277.492C620.305 281.242 624.113 283.684 629.602 283.703C635.051 283.684 638.918 281.242 638.938 277.492C638.918 273.723 635.051 271.32 629.602 271.32C624.113 271.32 620.305 273.723 620.305 277.492ZM624.992 293.859H634.289V286.086C632.863 286.418 631.281 286.594 629.602 286.594C627.961 286.594 626.398 286.418 624.992 286.086V293.859ZM653.977 289.602C654.035 284.484 655.539 282.922 658.117 281.32C659.758 280.324 661.008 278.879 661.008 276.828C661.008 274.387 659.133 272.844 656.789 272.844C654.68 272.844 652.629 274.133 652.453 277.023H648.234C648.391 272.043 652.141 269.328 656.789 269.328C661.867 269.328 665.266 272.375 665.266 276.828C665.266 279.973 663.762 282.062 661.281 283.586C658.938 285.012 658.02 286.418 657.961 289.602V289.836H653.977V289.602ZM653.352 295.5C653.332 293.977 654.602 292.727 656.125 292.727C657.629 292.727 658.879 293.977 658.898 295.5C658.879 297.023 657.629 298.254 656.125 298.273C654.602 298.254 653.332 297.023 653.352 295.5Z" fill="#474D66"/>
<rect x="265" y="512" width="228" height="64" rx="8" fill="white"/>
<path d="M252.812 478.406H256.531L258.453 480.938C259.75 479.594 260.516 477.5 260.5 474.688C260.516 469.516 257.922 466.719 254.219 466.719C250.531 466.719 247.922 469.516 247.938 474.688C247.922 479.859 250.531 482.656 254.219 482.656C254.812 482.656 255.375 482.578 255.906 482.438L252.812 478.406ZM243.844 474.688C243.828 467.375 248.266 463.062 254.219 463.062C260.141 463.062 264.609 467.375 264.594 474.688C264.609 478.797 263.203 481.953 260.922 483.938L264.062 487.969H260.094L258.203 485.578C256.984 486.062 255.641 486.312 254.219 486.312C248.266 486.312 243.828 481.984 243.844 474.688ZM269.094 486.25C267.75 486.25 266.641 485.156 266.656 483.812C266.641 482.5 267.75 481.422 269.094 481.406C270.391 481.422 271.5 482.5 271.5 483.812C271.5 485.156 270.391 486.25 269.094 486.25ZM307.562 471.438V474.281H303.375V488.719H299.906V460.531H303.375V471.438H307.562ZM282.25 481.75V463.281H285.688V478.875C289.453 478.812 293.453 478.484 297.719 477.594L298.094 480.531C293.328 481.484 288.812 481.734 284.625 481.75H282.25ZM334.688 473.344V475.969H308.875V473.344H334.688ZM311.875 480.094V477.656H331.562V484.094H315.375V486.062H332.406V488.469H311.906V481.844H328.125V480.094H311.875ZM312.062 463.562V461.156H331.5V467.531H315.594V469.375H332V471.75H312.156V465.281H328.031V463.562H312.062ZM357.906 462.156V464.938H348.688V471.625C353.828 471.594 356.906 471.391 360.406 470.656L360.781 473.406C356.984 474.172 353.547 474.344 347.531 474.344H345.25V462.156H357.906ZM346.438 479.344V476.781H355.625V483.656H349.875V485.781C352.234 485.766 354 485.688 356.156 485.344L356.438 487.938C353.656 488.422 351.531 488.438 348.094 488.438H346.469V481.219H352.281V479.344H346.438ZM357.219 488.438V476.781H366.438V488.438H357.219ZM360.25 485.844H363.438V479.344H360.25V485.844ZM362.969 475.562V460.531H366.438V466.656H370.375V469.531H366.438V475.562H362.969ZM397.562 475.125V477.906H371.812V475.125H397.562ZM374.469 467.156C374.469 463.578 378.484 461.422 384.656 461.438C390.812 461.422 394.828 463.578 394.844 467.156C394.828 470.75 390.812 472.938 384.656 472.938C378.484 472.938 374.469 470.75 374.469 467.156ZM375 488.219V480H378.469V485.406H394.656V488.219H375ZM378.094 467.156C378.062 469.078 380.547 470.109 384.656 470.094C388.781 470.109 391.25 469.078 391.25 467.156C391.25 465.297 388.781 464.219 384.656 464.219C380.547 464.219 378.062 465.297 378.094 467.156ZM432.844 474.062V476.844H407.062V474.062H418.25V471.375H410.219V461.812H429.719V464.531H413.688V468.625H429.875V471.375H421.656V474.062H432.844ZM410.062 483.625C410.062 480.312 413.766 478.453 419.906 478.469C426 478.453 429.672 480.312 429.688 483.625C429.672 486.906 426 488.766 419.906 488.781C413.766 488.766 410.062 486.906 410.062 483.625ZM413.594 483.625C413.578 485.266 415.797 486.109 419.906 486.094C423.953 486.109 426.188 485.266 426.219 483.625C426.188 482 423.953 481.125 419.906 481.125C415.797 481.125 413.578 482 413.594 483.625ZM460.469 472V474.75H449.281V476.875H457.25V483.812H441.188V485.875H458.031V488.531H437.781V481.312H453.844V479.5H437.75V476.875H445.812V474.75H434.719V472H460.469ZM437.969 470.219V461.406H457.156V470.219H437.969ZM441.375 467.5H453.688V464.125H441.375V467.5ZM488.125 475.125V477.906H462.375V475.125H488.125ZM465.031 467.156C465.031 463.578 469.047 461.422 475.219 461.438C481.375 461.422 485.391 463.578 485.406 467.156C485.391 470.75 481.375 472.938 475.219 472.938C469.047 472.938 465.031 470.75 465.031 467.156ZM465.562 488.219V480H469.031V485.406H485.219V488.219H465.562ZM468.656 467.156C468.625 469.078 471.109 470.109 475.219 470.094C479.344 470.109 481.812 469.078 481.812 467.156C481.812 465.297 479.344 464.219 475.219 464.219C471.109 464.219 468.625 465.297 468.656 467.156ZM494.812 479.062C494.844 475.078 495.969 473.859 497.938 472.656C499.266 471.797 500.297 470.75 500.281 469.188C500.297 467.438 498.922 466.312 497.219 466.312C495.672 466.312 494.172 467.312 494.062 469.406H490.156C490.266 465.203 493.391 463.062 497.25 463.062C501.469 463.062 504.359 465.406 504.375 469.125C504.359 471.672 503.094 473.328 501.062 474.531C499.25 475.641 498.5 476.719 498.469 479.062V479.344H494.812V479.062ZM494.312 483.812C494.297 482.5 495.406 481.422 496.75 481.406C498.047 481.422 499.156 482.5 499.156 483.812C499.156 485.156 498.047 486.25 496.75 486.25C495.406 486.25 494.297 485.156 494.312 483.812Z" fill="#474D66"/>
<path d="M291.008 545.68V546.711C290.996 548.234 290.996 550.66 290.352 554.152C291.184 554.082 292.004 553.988 292.812 553.883L292.953 555.477C290.879 555.828 288.746 556.039 286.648 556.168V563.914H284.422V556.273C282.535 556.344 280.73 556.344 279.102 556.344L278.82 554.562C281.527 554.551 284.82 554.516 288.102 554.316C288.312 553.215 288.465 552.219 288.57 551.328L280.461 551.984L280.133 550.109L288.723 549.664C288.781 548.82 288.793 548.105 288.805 547.484H280.625V545.68H291.008ZM289.742 559.555V557.773H294.383V544.016H296.609V564.992H294.383V559.555H289.742ZM310.695 546.125C310.672 552.324 308.773 557.82 301.109 561.594L299.891 559.93C303.688 558.066 305.949 555.805 307.191 553.145L300.336 553.789L300.008 551.867L307.883 551.34C308.199 550.262 308.375 549.125 308.457 547.93H301.109V546.125H310.695ZM313.906 564.969V543.992H316.133V552.383H319.391V554.211H316.133V564.969H313.906Z" fill="#474D66"/>
<path d="M309.693 214H435.307C448.152 214 456.159 200.155 449.737 189.129L386.93 81.2697C380.507 70.2434 364.493 70.2434 358.07 81.2697L295.263 189.129C288.841 200.155 296.848 214 309.693 214ZM372.5 162.512C367.913 162.512 364.159 158.781 364.159 154.221V121.278C364.159 116.718 367.913 112.987 372.5 112.987C377.087 112.987 380.841 116.718 380.841 121.278V154.221C380.841 158.781 377.087 162.512 372.5 162.512ZM380.841 180.838C380.841 185.417 377.079 189.129 372.5 189.129V189.129C367.921 189.129 364.159 185.417 364.159 180.838V180.838C364.159 176.259 367.921 172.548 372.5 172.548V172.548C377.079 172.548 380.841 176.259 380.841 180.838V180.838Z" fill="#D14343"/>
<path d="M79 402L667 402" stroke="#C6CADA"/>
<mask id="path-8-outside-1_13759_7214" maskUnits="userSpaceOnUse" x="281" y="382" width="186" height="39" fill="black">
<rect fill="white" x="281" y="382" width="186" height="39"/>
<path d="M296.121 394.922C298.477 394.931 300.155 397.075 300.164 400.441C300.155 403.843 298.477 405.987 296.121 405.979C293.766 405.987 292.087 403.843 292.096 400.441C292.087 397.075 293.766 394.931 296.121 394.922ZM293.695 400.441C293.687 402.946 294.688 404.484 296.121 404.484C297.58 404.484 298.564 402.946 298.564 400.441C298.564 397.972 297.58 396.425 296.121 396.416C294.688 396.425 293.687 397.972 293.695 400.441ZM302.502 409.494V393.744H304.172V399.914H306.703V401.32H304.172V409.494H302.502ZM313.893 395.396V401.092H309.568V404.414C311.273 404.405 312.891 404.326 314.789 404.027L314.93 405.363C312.741 405.75 310.983 405.803 309.023 405.82H307.951V399.721H312.275V396.768H307.934V395.396H313.893ZM315.809 408.686V394.061H317.338V399.879H319.377V393.744H320.977V409.494H319.377V401.232H317.338V408.686H315.809ZM340.453 393.744V401.883H338.801V393.744H340.453ZM327.586 400.635C330.029 399.879 331.55 397.98 331.559 395.941H328.025V394.588H336.709V395.941H333.246C333.246 397.866 334.749 399.642 337.201 400.336L336.393 401.619C334.529 401.065 333.141 399.879 332.429 398.367C331.734 400.037 330.293 401.347 328.359 401.953L327.586 400.635ZM330.117 403.887V402.604H340.471V406.506H331.787V408.035H340.998V409.336H330.17V405.293H338.818V403.887H330.117ZM357.363 401.707V403.061H351.105V406.119H349.453V403.061H342.949V401.707H357.363ZM344.742 409.16V404.625H346.412V407.807H355.764V409.16H344.742ZM344.795 400.072V394.482H355.5V400.072H344.795ZM346.43 398.754H353.848V395.801H346.43V398.754ZM372.076 393.744V409.494H370.477V393.744H372.076ZM358.699 400.547C358.699 397.137 360.035 395.001 362.092 395.01C364.008 395.001 365.3 396.82 365.493 399.773H367.277V394.043H368.877V408.721H367.277V401.127H365.502C365.353 404.203 364.043 406.11 362.092 406.102C360.035 406.11 358.699 403.966 358.699 400.547ZM360.246 400.547C360.246 403.052 360.958 404.528 362.092 404.52C363.252 404.528 363.973 403.052 363.973 400.547C363.973 398.033 363.252 396.565 362.092 396.574C360.958 396.565 360.246 398.033 360.246 400.547ZM390.85 393.744V397.348H393.135V398.736H390.85V402.146H389.18V393.744H390.85ZM379.178 401.672V394.746H386.174V396.117H380.83V400.301C383.897 400.283 385.62 400.195 387.598 399.773L387.791 401.127C385.664 401.575 383.801 401.663 380.426 401.672H379.178ZM380.76 409.248V402.973H382.412V404.766H389.18V402.973H390.85V409.248H380.76ZM382.412 407.895H389.18V406.084H382.412V407.895ZM401.818 396.346V397.699H393.996V396.346H397.09V394.201H398.742V396.346H401.818ZM394.506 402.27C394.497 400.151 395.938 398.648 397.916 398.648C399.911 398.648 401.335 400.151 401.344 402.27C401.335 404.423 399.911 405.935 397.916 405.926C395.938 405.935 394.497 404.423 394.506 402.27ZM395.982 402.27C395.974 403.605 396.782 404.502 397.916 404.502C399.05 404.502 399.867 403.605 399.867 402.27C399.867 400.96 399.05 400.046 397.916 400.037C396.782 400.046 395.974 400.96 395.982 402.27ZM402.539 408.756V394.096H404.121V400.301H405.932V393.744H407.514V409.494H405.932V401.672H404.121V408.756H402.539ZM423.949 402.621V403.975H417.551V409.477H415.916V403.975H409.588V402.621H423.949ZM410.396 400.107C413.332 399.703 415.775 397.954 415.828 396.012H410.924V394.676H422.596V396.012H417.727C417.753 397.954 420.179 399.703 423.158 400.107L422.543 401.426C419.959 401.021 417.727 399.747 416.769 397.954C415.802 399.747 413.578 401.021 411.029 401.426L410.396 400.107ZM429.943 398.051C429.943 400.564 430.998 403.245 433.107 404.537L432.176 405.82C430.699 404.933 429.706 403.359 429.161 401.54C428.59 403.535 427.5 405.24 425.971 406.172L424.934 404.924C427.157 403.588 428.335 400.802 428.326 398.121V395.186H429.943V398.051ZM431.402 400.67V399.281H433.846V394.043H435.428V408.721H433.846V400.67H431.402ZM437.098 409.494V393.744H438.697V409.494H437.098ZM455.115 406.137V407.525H440.701V406.137H444.146V402.023C442.854 401.312 442.063 400.187 442.072 398.771C442.063 396.293 444.498 394.667 447.873 394.658C451.257 394.667 453.691 396.293 453.691 398.771C453.691 400.16 452.936 401.276 451.67 401.988V406.137H455.115ZM443.689 398.771C443.689 400.459 445.403 401.558 447.873 401.566C450.325 401.558 452.065 400.459 452.074 398.771C452.065 397.075 450.325 395.994 447.873 395.994C445.403 395.994 443.689 397.075 443.689 398.771ZM445.799 406.137H449.982V402.639C449.341 402.788 448.629 402.867 447.873 402.867C447.135 402.867 446.432 402.788 445.799 402.639V406.137Z"/>
</mask>
<path d="M296.121 394.922C298.477 394.931 300.155 397.075 300.164 400.441C300.155 403.843 298.477 405.987 296.121 405.979C293.766 405.987 292.087 403.843 292.096 400.441C292.087 397.075 293.766 394.931 296.121 394.922ZM293.695 400.441C293.687 402.946 294.688 404.484 296.121 404.484C297.58 404.484 298.564 402.946 298.564 400.441C298.564 397.972 297.58 396.425 296.121 396.416C294.688 396.425 293.687 397.972 293.695 400.441ZM302.502 409.494V393.744H304.172V399.914H306.703V401.32H304.172V409.494H302.502ZM313.893 395.396V401.092H309.568V404.414C311.273 404.405 312.891 404.326 314.789 404.027L314.93 405.363C312.741 405.75 310.983 405.803 309.023 405.82H307.951V399.721H312.275V396.768H307.934V395.396H313.893ZM315.809 408.686V394.061H317.338V399.879H319.377V393.744H320.977V409.494H319.377V401.232H317.338V408.686H315.809ZM340.453 393.744V401.883H338.801V393.744H340.453ZM327.586 400.635C330.029 399.879 331.55 397.98 331.559 395.941H328.025V394.588H336.709V395.941H333.246C333.246 397.866 334.749 399.642 337.201 400.336L336.393 401.619C334.529 401.065 333.141 399.879 332.429 398.367C331.734 400.037 330.293 401.347 328.359 401.953L327.586 400.635ZM330.117 403.887V402.604H340.471V406.506H331.787V408.035H340.998V409.336H330.17V405.293H338.818V403.887H330.117ZM357.363 401.707V403.061H351.105V406.119H349.453V403.061H342.949V401.707H357.363ZM344.742 409.16V404.625H346.412V407.807H355.764V409.16H344.742ZM344.795 400.072V394.482H355.5V400.072H344.795ZM346.43 398.754H353.848V395.801H346.43V398.754ZM372.076 393.744V409.494H370.477V393.744H372.076ZM358.699 400.547C358.699 397.137 360.035 395.001 362.092 395.01C364.008 395.001 365.3 396.82 365.493 399.773H367.277V394.043H368.877V408.721H367.277V401.127H365.502C365.353 404.203 364.043 406.11 362.092 406.102C360.035 406.11 358.699 403.966 358.699 400.547ZM360.246 400.547C360.246 403.052 360.958 404.528 362.092 404.52C363.252 404.528 363.973 403.052 363.973 400.547C363.973 398.033 363.252 396.565 362.092 396.574C360.958 396.565 360.246 398.033 360.246 400.547ZM390.85 393.744V397.348H393.135V398.736H390.85V402.146H389.18V393.744H390.85ZM379.178 401.672V394.746H386.174V396.117H380.83V400.301C383.897 400.283 385.62 400.195 387.598 399.773L387.791 401.127C385.664 401.575 383.801 401.663 380.426 401.672H379.178ZM380.76 409.248V402.973H382.412V404.766H389.18V402.973H390.85V409.248H380.76ZM382.412 407.895H389.18V406.084H382.412V407.895ZM401.818 396.346V397.699H393.996V396.346H397.09V394.201H398.742V396.346H401.818ZM394.506 402.27C394.497 400.151 395.938 398.648 397.916 398.648C399.911 398.648 401.335 400.151 401.344 402.27C401.335 404.423 399.911 405.935 397.916 405.926C395.938 405.935 394.497 404.423 394.506 402.27ZM395.982 402.27C395.974 403.605 396.782 404.502 397.916 404.502C399.05 404.502 399.867 403.605 399.867 402.27C399.867 400.96 399.05 400.046 397.916 400.037C396.782 400.046 395.974 400.96 395.982 402.27ZM402.539 408.756V394.096H404.121V400.301H405.932V393.744H407.514V409.494H405.932V401.672H404.121V408.756H402.539ZM423.949 402.621V403.975H417.551V409.477H415.916V403.975H409.588V402.621H423.949ZM410.396 400.107C413.332 399.703 415.775 397.954 415.828 396.012H410.924V394.676H422.596V396.012H417.727C417.753 397.954 420.179 399.703 423.158 400.107L422.543 401.426C419.959 401.021 417.727 399.747 416.769 397.954C415.802 399.747 413.578 401.021 411.029 401.426L410.396 400.107ZM429.943 398.051C429.943 400.564 430.998 403.245 433.107 404.537L432.176 405.82C430.699 404.933 429.706 403.359 429.161 401.54C428.59 403.535 427.5 405.24 425.971 406.172L424.934 404.924C427.157 403.588 428.335 400.802 428.326 398.121V395.186H429.943V398.051ZM431.402 400.67V399.281H433.846V394.043H435.428V408.721H433.846V400.67H431.402ZM437.098 409.494V393.744H438.697V409.494H437.098ZM455.115 406.137V407.525H440.701V406.137H444.146V402.023C442.854 401.312 442.063 400.187 442.072 398.771C442.063 396.293 444.498 394.667 447.873 394.658C451.257 394.667 453.691 396.293 453.691 398.771C453.691 400.16 452.936 401.276 451.67 401.988V406.137H455.115ZM443.689 398.771C443.689 400.459 445.403 401.558 447.873 401.566C450.325 401.558 452.065 400.459 452.074 398.771C452.065 397.075 450.325 395.994 447.873 395.994C445.403 395.994 443.689 397.075 443.689 398.771ZM445.799 406.137H449.982V402.639C449.341 402.788 448.629 402.867 447.873 402.867C447.135 402.867 446.432 402.788 445.799 402.639V406.137Z" fill="#8F95B2"/>
<path d="M296.121 394.922L296.162 383.922H296.08L296.121 394.922ZM300.164 400.441L311.164 400.47L311.164 400.413L300.164 400.441ZM296.121 405.979L296.162 394.979H296.08L296.121 405.979ZM292.096 400.441L303.096 400.47L303.096 400.413L292.096 400.441ZM293.695 400.441L304.695 400.48L304.695 400.402L293.695 400.441ZM296.121 396.416L296.187 385.416L296.054 385.416L296.121 396.416ZM302.502 409.494H291.502L302.502 420.494V409.494ZM302.502 393.744V382.744L291.502 393.744H302.502ZM304.172 393.744H315.172L304.172 382.744V393.744ZM304.172 399.914H293.172L304.172 410.914V399.914ZM306.703 399.914H317.703L306.703 388.914V399.914ZM306.703 401.32V412.32L317.703 401.32H306.703ZM304.172 401.32V390.32L293.172 401.32H304.172ZM304.172 409.494V420.494L315.172 409.494H304.172ZM296.08 405.922C293.574 405.912 291.421 404.627 290.208 403.003C289.163 401.604 289.164 400.494 289.164 400.47L311.164 400.413C311.155 397.022 310.312 393.158 307.837 389.842C305.194 386.302 301.024 383.94 296.162 383.922L296.08 405.922ZM289.164 400.413C289.164 400.374 289.169 400.119 289.289 399.701C289.408 399.286 289.664 398.638 290.201 397.918C291.429 396.269 293.621 394.969 296.162 394.979L296.08 416.978C300.977 416.997 305.186 414.629 307.844 411.06C310.325 407.73 311.155 403.852 311.164 400.47L289.164 400.413ZM296.08 394.979C298.619 394.969 300.818 396.267 302.053 397.931C302.593 398.658 302.851 399.313 302.971 399.737C303.092 400.163 303.096 400.424 303.096 400.47L281.096 400.413C281.087 403.808 281.907 407.702 284.39 411.047C287.052 414.63 291.268 416.997 296.162 416.978L296.08 394.979ZM303.096 400.413C303.096 400.45 303.099 401.576 302.046 402.99C300.827 404.629 298.666 405.912 296.162 405.922L296.08 383.922C291.221 383.94 287.043 386.301 284.398 389.855C281.919 393.185 281.087 397.066 281.096 400.47L303.096 400.413ZM282.695 400.403C282.686 402.946 283.159 406.171 284.994 409.159C287.006 412.434 290.846 415.484 296.121 415.484V393.484C299.964 393.484 302.586 395.765 303.741 397.645C304.719 399.238 304.695 400.442 304.695 400.48L282.695 400.403ZM296.121 415.484C301.358 415.484 305.22 412.486 307.263 409.159C309.103 406.164 309.564 402.94 309.564 400.441H287.564C287.564 400.364 287.571 400.084 287.672 399.646C287.771 399.221 287.995 398.495 288.517 397.645C289.047 396.782 289.942 395.706 291.347 394.841C292.803 393.943 294.469 393.484 296.121 393.484V415.484ZM309.564 400.441C309.564 397.932 309.092 394.723 307.259 391.742C305.237 388.455 301.412 385.448 296.187 385.416L296.055 407.416C294.4 407.406 292.747 406.936 291.312 406.044C289.929 405.185 289.046 404.123 288.521 403.269C287.544 401.682 287.564 400.481 287.564 400.441H309.564ZM296.054 385.416C290.792 385.449 286.989 388.506 284.998 391.742C283.17 394.715 282.686 397.927 282.695 400.481L304.695 400.402C304.696 400.486 304.709 401.69 303.737 403.269C302.603 405.113 300.018 407.392 296.189 407.416L296.054 385.416ZM313.502 409.494V393.744H291.502V409.494H313.502ZM302.502 404.744H304.172V382.744H302.502V404.744ZM293.172 393.744V399.914H315.172V393.744H293.172ZM304.172 410.914H306.703V388.914H304.172V410.914ZM295.703 399.914V401.32H317.703V399.914H295.703ZM306.703 390.32H304.172V412.32H306.703V390.32ZM293.172 401.32V409.494H315.172V401.32H293.172ZM304.172 398.494H302.502V420.494H304.172V398.494ZM313.893 395.396H324.893L313.893 384.396V395.396ZM313.893 401.092V412.092L324.893 401.092H313.893ZM309.568 401.092V390.092L298.568 401.092H309.568ZM309.568 404.414H298.568L309.625 415.414L309.568 404.414ZM314.789 404.027L325.729 402.876L313.079 393.161L314.789 404.027ZM314.93 405.363L316.844 416.195L325.869 404.212L314.93 405.363ZM309.023 405.82V416.82L309.122 416.82L309.023 405.82ZM307.951 405.82H296.951L307.951 416.82V405.82ZM307.951 399.721V388.721L296.951 399.721H307.951ZM312.275 399.721V410.721L323.275 399.721H312.275ZM312.275 396.768H323.275L312.275 385.768V396.768ZM307.934 396.768H296.934L307.934 407.768V396.768ZM307.934 395.396V384.396L296.934 395.396H307.934ZM315.809 408.686H304.809L315.809 419.686V408.686ZM315.809 394.061V383.061L304.809 394.061H315.809ZM317.338 394.061H328.338L317.338 383.061V394.061ZM317.338 399.879H306.338L317.338 410.879V399.879ZM319.377 399.879V410.879L330.377 399.879H319.377ZM319.377 393.744V382.744L308.377 393.744H319.377ZM320.977 393.744H331.977L320.977 382.744V393.744ZM320.977 409.494V420.494L331.977 409.494H320.977ZM319.377 409.494H308.377L319.377 420.494V409.494ZM319.377 401.232H330.377L319.377 390.232V401.232ZM317.338 401.232V390.232L306.338 401.232H317.338ZM317.338 408.686V419.686L328.338 408.686H317.338ZM302.893 395.396V401.092H324.893V395.396H302.893ZM313.893 390.092H309.568V412.092H313.893V390.092ZM298.568 401.092V404.414H320.568V401.092H298.568ZM309.625 415.414C311.683 415.403 313.886 415.305 316.499 414.894L313.079 393.161C311.895 393.347 310.864 393.407 309.512 393.414L309.625 415.414ZM303.85 405.179L303.99 406.515L325.869 404.212L325.729 402.876L303.85 405.179ZM313.016 394.531C311.74 394.757 310.709 394.805 308.925 394.821L309.122 416.82C311.258 416.801 313.743 416.743 316.844 416.195L313.016 394.531ZM309.023 394.82H307.951V416.82H309.023V394.82ZM318.951 405.82V399.721H296.951V405.82H318.951ZM307.951 410.721H312.275V388.721H307.951V410.721ZM323.275 399.721V396.768H301.275V399.721H323.275ZM312.275 385.768H307.934V407.768H312.275V385.768ZM318.934 396.768V395.396H296.934V396.768H318.934ZM307.934 406.396H313.893V384.396H307.934V406.396ZM326.809 408.686V394.061H304.809V408.686H326.809ZM315.809 405.061H317.338V383.061H315.809V405.061ZM306.338 394.061V399.879H328.338V394.061H306.338ZM317.338 410.879H319.377V388.879H317.338V410.879ZM330.377 399.879V393.744H308.377V399.879H330.377ZM319.377 404.744H320.977V382.744H319.377V404.744ZM309.977 393.744V409.494H331.977V393.744H309.977ZM320.977 398.494H319.377V420.494H320.977V398.494ZM330.377 409.494V401.232H308.377V409.494H330.377ZM319.377 390.232H317.338V412.232H319.377V390.232ZM306.338 401.232V408.686H328.338V401.232H306.338ZM317.338 397.686H315.809V419.686H317.338V397.686ZM340.453 393.744H351.453L340.453 382.744V393.744ZM340.453 401.883V412.883L351.453 401.883H340.453ZM338.801 401.883H327.801L338.801 412.883V401.883ZM338.801 393.744V382.744L327.801 393.744H338.801ZM327.586 400.635L324.335 390.126L318.098 406.201L327.586 400.635ZM331.559 395.941L342.558 395.989L331.559 384.941V395.941ZM328.025 395.941H317.025L328.025 406.941V395.941ZM328.025 394.588V383.588L317.025 394.588H328.025ZM336.709 394.588H347.709L336.709 383.588V394.588ZM336.709 395.941V406.941L347.709 395.941H336.709ZM333.246 395.941V384.941L322.246 395.941H333.246ZM337.201 400.336L346.508 406.2L340.198 389.752L337.201 400.336ZM336.393 401.619L333.259 412.163L345.699 407.483L336.393 401.619ZM332.429 398.367L342.38 393.681L322.272 394.144L332.429 398.367ZM328.359 401.953L318.872 407.519L331.651 412.449L328.359 401.953ZM330.117 403.887H319.117L330.117 414.887V403.887ZM330.117 402.604V391.604L319.117 402.604H330.117ZM340.471 402.604H351.471L340.471 391.604V402.604ZM340.471 406.506V417.506L351.471 406.506H340.471ZM331.787 406.506V395.506L320.787 406.506H331.787ZM331.787 408.035H320.787L331.787 419.035V408.035ZM340.998 408.035H351.998L340.998 397.035V408.035ZM340.998 409.336V420.336L351.998 409.336H340.998ZM330.17 409.336H319.17L330.17 420.336V409.336ZM330.17 405.293V394.293L319.17 405.293H330.17ZM338.818 405.293V416.293L349.818 405.293H338.818ZM338.818 403.887H349.818L338.818 392.887V403.887ZM329.453 393.744V401.883H351.453V393.744H329.453ZM340.453 390.883H338.801V412.883H340.453V390.883ZM349.801 401.883V393.744H327.801V401.883H349.801ZM338.801 404.744H340.453V382.744H338.801V404.744ZM330.837 411.143C336.839 409.287 342.525 403.833 342.558 395.989L320.559 395.894C320.575 392.128 323.22 390.471 324.335 390.126L330.837 411.143ZM331.559 384.941H328.025V406.941H331.559V384.941ZM339.025 395.941V394.588H317.025V395.941H339.025ZM328.025 405.588H336.709V383.588H328.025V405.588ZM325.709 394.588V395.941H347.709V394.588H325.709ZM336.709 384.941H333.246V406.941H336.709V384.941ZM322.246 395.941C322.246 404.127 328.444 409.289 334.204 410.92L340.198 389.752C341.054 389.994 344.246 391.606 344.246 395.941H322.246ZM327.895 394.472L327.086 395.755L345.699 407.483L346.508 406.2L327.895 394.472ZM339.526 391.075C340.392 391.332 341.64 392.109 342.38 393.681L322.477 403.054C324.641 407.649 328.667 410.799 333.259 412.163L339.526 391.075ZM322.272 394.144C322.912 392.605 324.117 391.755 325.067 391.457L331.651 412.449C336.469 410.938 340.557 407.469 342.586 402.59L322.272 394.144ZM337.847 396.387L337.074 395.069L318.098 406.201L318.872 407.519L337.847 396.387ZM341.117 403.887V402.604H319.117V403.887H341.117ZM330.117 413.604H340.471V391.604H330.117V413.604ZM329.471 402.604V406.506H351.471V402.604H329.471ZM340.471 395.506H331.787V417.506H340.471V395.506ZM320.787 406.506V408.035H342.787V406.506H320.787ZM331.787 419.035H340.998V397.035H331.787V419.035ZM329.998 408.035V409.336H351.998V408.035H329.998ZM340.998 398.336H330.17V420.336H340.998V398.336ZM341.17 409.336V405.293H319.17V409.336H341.17ZM330.17 416.293H338.818V394.293H330.17V416.293ZM349.818 405.293V403.887H327.818V405.293H349.818ZM338.818 392.887H330.117V414.887H338.818V392.887ZM357.363 401.707H368.363L357.363 390.707V401.707ZM357.363 403.061V414.061L368.363 403.061H357.363ZM351.105 403.061V392.061L340.105 403.061H351.105ZM351.105 406.119V417.119L362.105 406.119H351.105ZM349.453 406.119H338.453L349.453 417.119V406.119ZM349.453 403.061H360.453L349.453 392.061V403.061ZM342.949 403.061H331.949L342.949 414.061V403.061ZM342.949 401.707V390.707L331.949 401.707H342.949ZM344.742 409.16H333.742L344.742 420.16V409.16ZM344.742 404.625V393.625L333.742 404.625H344.742ZM346.412 404.625H357.412L346.412 393.625V404.625ZM346.412 407.807H335.412L346.412 418.807V407.807ZM355.764 407.807H366.764L355.764 396.807V407.807ZM355.764 409.16V420.16L366.764 409.16H355.764ZM344.795 400.072H333.795L344.795 411.072V400.072ZM344.795 394.482V383.482L333.795 394.482H344.795ZM355.5 394.482H366.5L355.5 383.482V394.482ZM355.5 400.072V411.072L366.5 400.072H355.5ZM346.43 398.754H335.43L346.43 409.754V398.754ZM353.848 398.754V409.754L364.848 398.754H353.848ZM353.848 395.801H364.848L353.848 384.801V395.801ZM346.43 395.801V384.801L335.43 395.801H346.43ZM346.363 401.707V403.061H368.363V401.707H346.363ZM357.363 392.061H351.105V414.061H357.363V392.061ZM340.105 403.061V406.119H362.105V403.061H340.105ZM351.105 395.119H349.453V417.119H351.105V395.119ZM360.453 406.119V403.061H338.453V406.119H360.453ZM349.453 392.061H342.949V414.061H349.453V392.061ZM353.949 403.061V401.707H331.949V403.061H353.949ZM342.949 412.707H357.363V390.707H342.949V412.707ZM355.742 409.16V404.625H333.742V409.16H355.742ZM344.742 415.625H346.412V393.625H344.742V415.625ZM335.412 404.625V407.807H357.412V404.625H335.412ZM346.412 418.807H355.764V396.807H346.412V418.807ZM344.764 407.807V409.16H366.764V407.807H344.764ZM355.764 398.16H344.742V420.16H355.764V398.16ZM355.795 400.072V394.482H333.795V400.072H355.795ZM344.795 405.482H355.5V383.482H344.795V405.482ZM344.5 394.482V400.072H366.5V394.482H344.5ZM355.5 389.072H344.795V411.072H355.5V389.072ZM346.43 409.754H353.848V387.754H346.43V409.754ZM364.848 398.754V395.801H342.848V398.754H364.848ZM353.848 384.801H346.43V406.801H353.848V384.801ZM335.43 395.801V398.754H357.43V395.801H335.43ZM372.076 393.744H383.076L372.076 382.744V393.744ZM372.076 409.494V420.494L383.076 409.494H372.076ZM370.477 409.494H359.477L370.477 420.494V409.494ZM370.477 393.744V382.744L359.477 393.744H370.477ZM362.092 395.01L362.045 406.01L362.142 406.01L362.092 395.01ZM365.493 399.773L354.517 400.492L365.493 410.773V399.773ZM367.277 399.773V410.773L378.277 399.773H367.277ZM367.277 394.043V383.043L356.277 394.043H367.277ZM368.877 394.043H379.877L368.877 383.043V394.043ZM368.877 408.721V419.721L379.877 408.721H368.877ZM367.277 408.721H356.277L367.277 419.721V408.721ZM367.277 401.127H378.277L367.277 390.127V401.127ZM365.502 401.127V390.127L354.515 400.593L365.502 401.127ZM362.092 406.102L362.141 395.102L362.045 395.102L362.092 406.102ZM362.092 404.52L362.175 393.52L362.007 393.52L362.092 404.52ZM362.092 396.574L362.007 407.574L362.175 407.574L362.092 396.574ZM361.076 393.744V409.494H383.076V393.744H361.076ZM372.076 398.494H370.477V420.494H372.076V398.494ZM381.477 409.494V393.744H359.477V409.494H381.477ZM370.477 404.744H372.076V382.744H370.477V404.744ZM369.699 400.547C369.699 400.076 369.822 400.915 368.989 402.267C368.53 403.011 367.72 403.992 366.413 404.788C365.056 405.614 363.523 406.016 362.045 406.01L362.139 384.01C356.633 383.986 352.5 387.09 350.26 390.725C348.244 393.996 347.699 397.608 347.699 400.547H369.699ZM362.142 406.01C360.812 406.016 359.41 405.689 358.122 404.984C356.867 404.296 356.014 403.414 355.482 402.667C354.501 401.29 354.503 400.283 354.517 400.492L376.47 399.055C376.29 396.311 375.55 392.917 373.395 389.895C371.004 386.542 367.015 383.987 362.041 384.01L362.142 406.01ZM365.493 410.773H367.277V388.773H365.493V410.773ZM378.277 399.773V394.043H356.277V399.773H378.277ZM367.277 405.043H368.877V383.043H367.277V405.043ZM357.877 394.043V408.721H379.877V394.043H357.877ZM368.877 397.721H367.277V419.721H368.877V397.721ZM378.277 408.721V401.127H356.277V408.721H378.277ZM367.277 390.127H365.502V412.127H367.277V390.127ZM354.515 400.593C354.501 400.871 354.465 399.914 355.401 398.55C355.911 397.807 356.749 396.899 358.017 396.183C359.323 395.445 360.763 395.095 362.141 395.102L362.042 417.101C367.17 417.125 371.198 414.413 373.544 410.993C375.66 407.908 376.353 404.459 376.489 401.661L354.515 400.593ZM362.045 395.102C363.532 395.095 365.07 395.501 366.429 396.332C367.736 397.13 368.543 398.113 368.998 398.853C369.824 400.198 369.699 401.026 369.699 400.547H347.699C347.699 403.486 348.243 407.097 350.251 410.366C352.481 413.998 356.612 417.125 362.139 417.101L362.045 395.102ZM349.246 400.547C349.246 402.6 349.502 405.414 350.786 408.15C352.134 411.021 355.71 415.569 362.177 415.519L362.007 393.52C364.309 393.502 366.444 394.298 368.088 395.58C369.59 396.75 370.35 398.054 370.702 398.802C371.346 400.176 371.246 400.999 371.246 400.547H349.246ZM362.008 415.519C368.363 415.567 371.982 411.173 373.394 408.215C374.713 405.453 374.973 402.609 374.973 400.547H352.973C352.973 400.99 352.872 400.136 353.541 398.737C353.906 397.97 354.684 396.67 356.195 395.515C357.843 394.256 359.944 393.503 362.175 393.52L362.008 415.519ZM374.973 400.547C374.973 398.486 374.714 395.637 373.391 392.869C371.965 389.887 368.337 385.527 362.008 385.575L362.175 407.574C359.961 407.591 357.864 406.847 356.212 405.59C354.695 404.435 353.913 403.132 353.544 402.36C352.871 400.953 352.973 400.094 352.973 400.547H374.973ZM362.177 385.575C355.736 385.525 352.151 390.038 350.789 392.935C349.5 395.676 349.246 398.496 349.246 400.547H371.246C371.246 400.084 371.348 400.914 370.699 402.295C370.344 403.048 369.579 404.355 368.072 405.526C366.423 406.806 364.293 407.592 362.007 407.574L362.177 385.575ZM390.85 393.744H401.85L390.85 382.744V393.744ZM390.85 397.348H379.85L390.85 408.348V397.348ZM393.135 397.348H404.135L393.135 386.348V397.348ZM393.135 398.736V409.736L404.135 398.736H393.135ZM390.85 398.736V387.736L379.85 398.736H390.85ZM390.85 402.146V413.146L401.85 402.146H390.85ZM389.18 402.146H378.18L389.18 413.146V402.146ZM389.18 393.744V382.744L378.18 393.744H389.18ZM379.178 401.672H368.178L379.178 412.672V401.672ZM379.178 394.746V383.746L368.178 394.746H379.178ZM386.174 394.746H397.174L386.174 383.746V394.746ZM386.174 396.117V407.117L397.174 396.117H386.174ZM380.83 396.117V385.117L369.83 396.117H380.83ZM380.83 400.301H369.83L380.893 411.301L380.83 400.301ZM387.598 399.773L398.487 398.218L385.303 389.016L387.598 399.773ZM387.791 401.127L390.059 411.891L398.68 399.571L387.791 401.127ZM380.426 401.672V412.672L380.454 412.672L380.426 401.672ZM380.76 409.248H369.76L380.76 420.248V409.248ZM380.76 402.973V391.973L369.76 402.973H380.76ZM382.412 402.973H393.412L382.412 391.973V402.973ZM382.412 404.766H371.412L382.412 415.766V404.766ZM389.18 404.766V415.766L400.18 404.766H389.18ZM389.18 402.973V391.973L378.18 402.973H389.18ZM390.85 402.973H401.85L390.85 391.973V402.973ZM390.85 409.248V420.248L401.85 409.248H390.85ZM382.412 407.895H371.412L382.412 418.895V407.895ZM389.18 407.895V418.895L400.18 407.895H389.18ZM389.18 406.084H400.18L389.18 395.084V406.084ZM382.412 406.084V395.084L371.412 406.084H382.412ZM379.85 393.744V397.348H401.85V393.744H379.85ZM390.85 408.348H393.135V386.348H390.85V408.348ZM382.135 397.348V398.736H404.135V397.348H382.135ZM393.135 387.736H390.85V409.736H393.135V387.736ZM379.85 398.736V402.146H401.85V398.736H379.85ZM390.85 391.146H389.18V413.146H390.85V391.146ZM400.18 402.146V393.744H378.18V402.146H400.18ZM389.18 404.744H390.85V382.744H389.18V404.744ZM390.178 401.672V394.746H368.178V401.672H390.178ZM379.178 405.746H386.174V383.746H379.178V405.746ZM375.174 394.746V396.117H397.174V394.746H375.174ZM386.174 385.117H380.83V407.117H386.174V385.117ZM369.83 396.117V400.301H391.83V396.117H369.83ZM380.893 411.301C384.095 411.282 386.757 411.2 389.893 410.531L385.303 389.016C384.483 389.19 383.7 389.284 380.767 389.301L380.893 411.301ZM376.708 401.329L376.902 402.683L398.68 399.571L398.487 398.218L376.708 401.329ZM385.523 390.363C384.567 390.565 383.657 390.663 380.397 390.672L380.454 412.672C383.945 412.663 386.761 412.586 390.059 411.891L385.523 390.363ZM380.426 390.672H379.178V412.672H380.426V390.672ZM391.76 409.248V402.973H369.76V409.248H391.76ZM380.76 413.973H382.412V391.973H380.76V413.973ZM371.412 402.973V404.766H393.412V402.973H371.412ZM382.412 415.766H389.18V393.766H382.412V415.766ZM400.18 404.766V402.973H378.18V404.766H400.18ZM389.18 413.973H390.85V391.973H389.18V413.973ZM379.85 402.973V409.248H401.85V402.973H379.85ZM390.85 398.248H380.76V420.248H390.85V398.248ZM382.412 418.895H389.18V396.895H382.412V418.895ZM400.18 407.895V406.084H378.18V407.895H400.18ZM389.18 395.084H382.412V417.084H389.18V395.084ZM371.412 406.084V407.895H393.412V406.084H371.412ZM401.818 396.346H412.818L401.818 385.346V396.346ZM401.818 397.699V408.699L412.818 397.699H401.818ZM393.996 397.699H382.996L393.996 408.699V397.699ZM393.996 396.346V385.346L382.996 396.346H393.996ZM397.09 396.346V407.346L408.09 396.346H397.09ZM397.09 394.201V383.201L386.09 394.201H397.09ZM398.742 394.201H409.742L398.742 383.201V394.201ZM398.742 396.346H387.742L398.742 407.346V396.346ZM394.506 402.27L405.506 402.314L405.506 402.224L394.506 402.27ZM401.344 402.27L412.344 402.314L412.344 402.224L401.344 402.27ZM397.916 405.926L397.964 394.926L397.867 394.926L397.916 405.926ZM395.982 402.27L406.982 402.342L406.982 402.196L395.982 402.27ZM397.916 400.037L398.001 389.037H397.831L397.916 400.037ZM402.539 408.756H391.539L402.539 419.756V408.756ZM402.539 394.096V383.096L391.539 394.096H402.539ZM404.121 394.096H415.121L404.121 383.096V394.096ZM404.121 400.301H393.121L404.121 411.301V400.301ZM405.932 400.301V411.301L416.932 400.301H405.932ZM405.932 393.744V382.744L394.932 393.744H405.932ZM407.514 393.744H418.514L407.514 382.744V393.744ZM407.514 409.494V420.494L418.514 409.494H407.514ZM405.932 409.494H394.932L405.932 420.494V409.494ZM405.932 401.672H416.932L405.932 390.672V401.672ZM404.121 401.672V390.672L393.121 401.672H404.121ZM404.121 408.756V419.756L415.121 408.756H404.121ZM390.818 396.346V397.699H412.818V396.346H390.818ZM401.818 386.699H393.996V408.699H401.818V386.699ZM404.996 397.699V396.346H382.996V397.699H404.996ZM393.996 407.346H397.09V385.346H393.996V407.346ZM408.09 396.346V394.201H386.09V396.346H408.09ZM397.09 405.201H398.742V383.201H397.09V405.201ZM387.742 394.201V396.346H409.742V394.201H387.742ZM398.742 407.346H401.818V385.346H398.742V407.346ZM405.506 402.224C405.512 403.708 404.98 405.615 403.454 407.228C401.899 408.87 399.825 409.648 397.916 409.648V387.648C389.328 387.648 383.474 394.635 383.506 402.315L405.506 402.224ZM397.916 409.648C396.031 409.648 393.952 408.88 392.387 407.228C390.862 405.617 390.35 403.736 390.344 402.315L412.344 402.224C412.312 394.665 406.568 387.648 397.916 387.648V409.648ZM390.344 402.225C390.349 400.871 390.83 399.004 392.355 397.38C393.929 395.703 396.041 394.917 397.964 394.926L397.868 416.926C401.786 416.943 405.607 415.406 408.395 412.437C411.132 409.521 412.329 405.822 412.344 402.314L390.344 402.225ZM397.867 394.926C399.815 394.917 401.922 395.714 403.486 397.38C405.013 399.006 405.512 400.898 405.506 402.314L383.506 402.225C383.475 409.818 389.225 416.965 397.965 416.926L397.867 394.926ZM384.983 402.197C384.964 405.08 385.839 408.388 388.248 411.137C390.741 413.981 394.275 415.502 397.916 415.502V393.502C400.423 393.502 402.986 394.574 404.793 396.637C406.517 398.603 406.992 400.795 406.982 402.342L384.983 402.197ZM397.916 415.502C401.553 415.502 405.068 413.987 407.555 411.176C409.963 408.455 410.867 405.164 410.867 402.27H388.867C388.867 400.711 389.363 398.536 391.079 396.597C392.873 394.569 395.413 393.502 397.916 393.502V415.502ZM410.867 402.27C410.867 396.193 406.377 389.102 398.001 389.037L397.831 411.037C395.291 411.017 392.797 409.908 391.058 407.932C389.391 406.037 388.867 403.891 388.867 402.27H410.867ZM397.831 389.037C389.395 389.103 384.942 396.273 384.983 402.343L406.982 402.196C406.993 403.806 406.489 405.97 404.813 407.893C403.062 409.903 400.546 411.017 398.001 411.037L397.831 389.037ZM413.539 408.756V394.096H391.539V408.756H413.539ZM402.539 405.096H404.121V383.096H402.539V405.096ZM393.121 394.096V400.301H415.121V394.096H393.121ZM404.121 411.301H405.932V389.301H404.121V411.301ZM416.932 400.301V393.744H394.932V400.301H416.932ZM405.932 404.744H407.514V382.744H405.932V404.744ZM396.514 393.744V409.494H418.514V393.744H396.514ZM407.514 398.494H405.932V420.494H407.514V398.494ZM416.932 409.494V401.672H394.932V409.494H416.932ZM405.932 390.672H404.121V412.672H405.932V390.672ZM393.121 401.672V408.756H415.121V401.672H393.121ZM404.121 397.756H402.539V419.756H404.121V397.756ZM423.949 402.621H434.949L423.949 391.621V402.621ZM423.949 403.975V414.975L434.949 403.975H423.949ZM417.551 403.975V392.975L406.551 403.975H417.551ZM417.551 409.477V420.477L428.551 409.477H417.551ZM415.916 409.477H404.916L415.916 420.477V409.477ZM415.916 403.975H426.916L415.916 392.975V403.975ZM409.588 403.975H398.588L409.588 414.975V403.975ZM409.588 402.621V391.621L398.588 402.621H409.588ZM410.396 400.107L408.896 389.21L400.48 404.867L410.396 400.107ZM415.828 396.012L426.824 396.31L415.828 385.012V396.012ZM410.924 396.012H399.924L410.924 407.012V396.012ZM410.924 394.676V383.676L399.924 394.676H410.924ZM422.596 394.676H433.596L422.596 383.676V394.676ZM422.596 396.012V407.012L433.596 396.012H422.596ZM417.727 396.012V385.012L406.728 396.161L417.727 396.012ZM423.158 400.107L433.126 404.759L424.637 389.207L423.158 400.107ZM422.543 401.426L420.843 412.294L432.511 406.078L422.543 401.426ZM416.769 397.954L426.47 392.77L407.086 392.733L416.769 397.954ZM411.029 401.426L401.113 406.186L412.753 412.29L411.029 401.426ZM412.949 402.621V403.975H434.949V402.621H412.949ZM423.949 392.975H417.551V414.975H423.949V392.975ZM406.551 403.975V409.477H428.551V403.975H406.551ZM417.551 398.477H415.916V420.477H417.551V398.477ZM426.916 409.477V403.975H404.916V409.477H426.916ZM415.916 392.975H409.588V414.975H415.916V392.975ZM420.588 403.975V402.621H398.588V403.975H420.588ZM409.588 413.621H423.949V391.621H409.588V413.621ZM411.897 411.005C414.963 410.582 418.102 409.434 420.749 407.469C423.201 405.649 426.671 401.95 426.824 396.31L404.832 395.713C404.933 392.016 407.154 390.162 407.638 389.803C408.316 389.3 408.765 389.228 408.896 389.21L411.897 411.005ZM415.828 385.012H410.924V407.012H415.828V385.012ZM421.924 396.012V394.676H399.924V396.012H421.924ZM410.924 405.676H422.596V383.676H410.924V405.676ZM411.596 394.676V396.012H433.596V394.676H411.596ZM422.596 385.012H417.727V407.012H422.596V385.012ZM406.728 396.161C406.805 401.854 410.281 405.611 412.77 407.462C415.442 409.45 418.606 410.591 421.679 411.008L424.637 389.207C424.73 389.22 425.192 389.284 425.9 389.81C426.424 390.2 428.675 392.112 428.726 395.862L406.728 396.161ZM413.19 395.456L412.575 396.774L432.511 406.078L433.126 404.759L413.19 395.456ZM424.243 390.558C424.173 390.547 424.323 390.551 424.655 390.748C424.96 390.929 425.794 391.504 426.47 392.77L407.067 403.138C410.236 409.07 416.293 411.582 420.843 412.294L424.243 390.558ZM407.086 392.733C407.75 391.503 408.558 390.942 408.86 390.762C409.038 390.656 409.163 390.607 409.221 390.586C409.253 390.575 409.275 390.569 409.288 390.566C409.3 390.563 409.306 390.562 409.306 390.562L412.753 412.29C417.306 411.568 423.29 409.036 426.451 403.175L407.086 392.733ZM420.946 396.666L420.313 395.347L400.48 404.867L401.113 406.186L420.946 396.666ZM433.107 404.537L442.009 411L438.853 395.157L433.107 404.537ZM432.176 405.82L426.508 415.248L441.077 412.283L432.176 405.82ZM429.161 401.54L439.699 398.384L418.586 398.512L429.161 401.54ZM425.971 406.172L417.511 413.202L431.694 415.566L425.971 406.172ZM424.934 404.924L419.269 395.495L416.473 411.954L424.934 404.924ZM428.326 398.121H417.326L417.326 398.157L428.326 398.121ZM428.326 395.186V384.186L417.326 395.186H428.326ZM429.943 395.186H440.943L429.943 384.186V395.186ZM431.402 400.67H420.402L431.402 411.67V400.67ZM431.402 399.281V388.281L420.402 399.281H431.402ZM433.846 399.281V410.281L444.846 399.281H433.846ZM433.846 394.043V383.043L422.846 394.043H433.846ZM435.428 394.043H446.428L435.428 383.043V394.043ZM435.428 408.721V419.721L446.428 408.721H435.428ZM433.846 408.721H422.846L433.846 419.721V408.721ZM433.846 400.67H444.846L433.846 389.67V400.67ZM437.098 409.494H426.098L437.098 420.494V409.494ZM437.098 393.744V382.744L426.098 393.744H437.098ZM438.697 393.744H449.697L438.697 382.744V393.744ZM438.697 409.494V420.494L449.697 409.494H438.697ZM418.943 398.051C418.943 402.966 420.933 409.98 427.362 413.917L438.853 395.157C440.018 395.871 440.539 396.745 440.727 397.153C440.911 397.554 440.943 397.839 440.943 398.051H418.943ZM424.206 398.074L423.274 399.358L441.077 412.283L442.009 411L424.206 398.074ZM437.843 396.393C438.652 396.879 439.141 397.443 439.395 397.815C439.522 398 439.598 398.146 439.64 398.237C439.682 398.328 439.697 398.379 439.699 398.384L418.624 404.696C419.663 408.168 421.94 412.501 426.508 415.248L437.843 396.393ZM418.586 398.512C418.575 398.552 418.612 398.391 418.81 398.098C419.01 397.801 419.452 397.263 420.248 396.778L431.694 415.566C436.295 412.763 438.67 408.29 439.736 404.568L418.586 398.512ZM434.431 399.142L433.394 397.894L416.473 411.954L417.511 413.202L434.431 399.142ZM430.599 414.353C437.073 410.463 439.344 403.416 439.326 398.085L417.326 398.157C417.326 397.935 417.362 397.662 417.537 397.294C417.716 396.919 418.2 396.137 419.269 395.495L430.599 414.353ZM439.326 398.121V395.186H417.326V398.121H439.326ZM428.326 406.186H429.943V384.186H428.326V406.186ZM418.943 395.186V398.051H440.943V395.186H418.943ZM442.402 400.67V399.281H420.402V400.67H442.402ZM431.402 410.281H433.846V388.281H431.402V410.281ZM444.846 399.281V394.043H422.846V399.281H444.846ZM433.846 405.043H435.428V383.043H433.846V405.043ZM424.428 394.043V408.721H446.428V394.043H424.428ZM435.428 397.721H433.846V419.721H435.428V397.721ZM444.846 408.721V400.67H422.846V408.721H444.846ZM433.846 389.67H431.402V411.67H433.846V389.67ZM448.098 409.494V393.744H426.098V409.494H448.098ZM437.098 404.744H438.697V382.744H437.098V404.744ZM427.697 393.744V409.494H449.697V393.744H427.697ZM438.697 398.494H437.098V420.494H438.697V398.494ZM455.115 406.137H466.115L455.115 395.137V406.137ZM455.115 407.525V418.525L466.115 407.525H455.115ZM440.701 407.525H429.701L440.701 418.525V407.525ZM440.701 406.137V395.137L429.701 406.137H440.701ZM444.146 406.137V417.137L455.146 406.137H444.146ZM444.146 402.023H455.146L449.455 392.389L444.146 402.023ZM442.072 398.771L453.072 398.84L453.072 398.732L442.072 398.771ZM447.873 394.658L447.902 383.658L447.844 383.658L447.873 394.658ZM451.67 401.988L446.277 392.401L440.67 401.988H451.67ZM451.67 406.137H440.67L451.67 417.137V406.137ZM447.873 401.566L447.834 412.566L447.912 412.566L447.873 401.566ZM452.074 398.771L463.074 398.829L463.074 398.714L452.074 398.771ZM445.799 406.137H434.799L445.799 417.137V406.137ZM449.982 406.137V417.137L460.982 406.137H449.982ZM449.982 402.639H460.982L447.488 391.925L449.982 402.639ZM445.799 402.639L448.327 391.933L434.799 402.639H445.799ZM444.115 406.137V407.525H466.115V406.137H444.115ZM455.115 396.525H440.701V418.525H455.115V396.525ZM451.701 407.525V406.137H429.701V407.525H451.701ZM440.701 417.137H444.146V395.137H440.701V417.137ZM455.146 406.137V402.023H433.146V406.137H455.146ZM449.455 392.389C450.109 392.749 451.041 393.439 451.825 394.636C452.65 395.897 453.081 397.381 453.072 398.84L431.072 398.703C431.034 404.955 434.778 409.421 438.838 411.658L449.455 392.389ZM453.072 398.732C453.077 399.981 452.758 401.277 452.105 402.446C451.471 403.581 450.667 404.343 449.993 404.813C449.332 405.274 448.769 405.477 448.446 405.566C448.116 405.656 447.925 405.658 447.902 405.658L447.844 383.658C444.543 383.667 440.735 384.45 437.414 386.764C433.839 389.256 431.053 393.48 431.072 398.81L453.072 398.732ZM447.844 405.658C447.826 405.658 447.638 405.657 447.31 405.567C446.99 405.479 446.43 405.278 445.771 404.82C445.099 404.352 444.298 403.595 443.665 402.466C443.013 401.305 442.691 400.015 442.691 398.771H464.691C464.691 393.454 461.906 389.243 458.331 386.758C455.01 384.448 451.203 383.667 447.902 383.658L447.844 405.658ZM442.691 398.771C442.691 397.384 443.094 395.946 443.894 394.698C444.662 393.5 445.591 392.787 446.277 392.401L457.063 411.576C461.167 409.267 464.691 404.803 464.691 398.771H442.691ZM440.67 401.988V406.137H462.67V401.988H440.67ZM451.67 417.137H455.115V395.137H451.67V417.137ZM432.689 398.771C432.689 403.889 435.489 407.796 438.795 409.978C441.816 411.973 445.144 412.557 447.834 412.566L447.912 390.566C448.133 390.567 449.368 390.597 450.916 391.619C452.747 392.827 454.689 395.342 454.689 398.771H432.689ZM447.912 412.566C450.61 412.557 453.916 411.967 456.919 409.999C460.183 407.86 463.047 403.988 463.074 398.829L441.074 398.714C441.092 395.243 443.082 392.763 444.861 391.598C446.378 390.603 447.589 390.567 447.834 390.566L447.912 412.566ZM463.074 398.714C463.047 393.555 460.185 389.667 456.881 387.521C453.86 385.56 450.547 384.994 447.873 384.994V406.994C447.651 406.994 446.434 406.969 444.899 405.972C443.08 404.791 441.092 402.292 441.074 398.828L463.074 398.714ZM447.873 384.994C445.206 384.994 441.872 385.553 438.833 387.542C435.487 389.731 432.689 393.654 432.689 398.771H454.689C454.689 400.272 454.291 401.811 453.485 403.185C452.704 404.517 451.715 405.404 450.877 405.952C449.312 406.976 448.07 406.994 447.873 406.994V384.994ZM445.799 417.137H449.982V395.137H445.799V417.137ZM460.982 406.137V402.639H438.982V406.137H460.982ZM447.488 391.925C447.622 391.894 447.72 391.88 447.778 391.874C447.837 391.867 447.869 391.867 447.873 391.867V413.867C449.381 413.867 450.937 413.711 452.477 413.352L447.488 391.925ZM447.873 391.867C447.895 391.867 447.939 391.868 448.007 391.876C448.075 391.883 448.182 391.899 448.327 391.933L443.271 413.344C444.811 413.708 446.369 413.867 447.873 413.867V391.867ZM434.799 402.639V406.137H456.799V402.639H434.799Z" fill="#F7F7FA" mask="url(#path-8-outside-1_13759_7214)"/>
<path d="M288.477 522.912V525.715H290.254V526.795H288.477V529.447H287.178V522.912H288.477ZM279.398 529.078V523.691H284.84V524.758H280.684V528.012C283.069 527.998 284.409 527.93 285.947 527.602L286.098 528.654C284.443 529.003 282.994 529.071 280.369 529.078H279.398ZM280.629 534.971V530.09H281.914V531.484H287.178V530.09H288.477V534.971H280.629ZM281.914 533.918H287.178V532.51H281.914V533.918ZM301.164 522.926V531.977H299.865V528.791H297.186V529.939H291.539V523.732H292.838V525.811H295.9V523.732H297.186V525.1H299.865V522.926H301.164ZM292.838 528.887H295.9V526.809H292.838V528.887ZM293.166 534.902V531.088H294.479V533.85H301.438V534.902H293.166ZM297.186 527.738H299.865V526.166H297.186V527.738Z" fill="#8F95B2"/>
</svg>
