<svg width="24" height="24" viewBox="0 0 24 24" fill="none" xmlns="http://www.w3.org/2000/svg">
<path d="M11.7007 18.7169C10.8128 19.6048 9.74316 20.0488 8.49167 20.0489C7.24017 20.049 6.17054 19.6051 5.28278 18.7174C4.39502 17.8296 3.95105 16.7598 3.95088 15.5081C3.9507 14.2563 4.39454 13.1865 5.28241 12.2986L7.41733 10.1637C7.56759 10.0135 7.74438 9.93837 7.94771 9.93843C8.15104 9.93846 8.32787 10.0136 8.4782 10.164C8.62852 10.3143 8.70362 10.491 8.7035 10.6942C8.70339 10.8974 8.62821 11.0741 8.47795 11.2244L6.34222 13.3601C5.74897 13.9533 5.45235 14.6692 5.45235 15.5078C5.45235 16.3464 5.74924 17.0625 6.34304 17.6563C6.93683 18.2501 7.653 18.547 8.49156 18.547C9.33012 18.547 10.046 18.2504 10.6393 17.6571L12.775 15.5214C12.9253 15.3711 13.1021 15.296 13.3054 15.2961C13.5087 15.2961 13.6855 15.3713 13.8359 15.5216C13.9862 15.672 14.0613 15.8487 14.0612 16.0519C14.0611 16.2551 13.9859 16.4318 13.8356 16.582L11.7007 18.7169ZM10.4089 14.6511C10.2586 14.8014 10.0818 14.8765 9.87852 14.8764C9.67518 14.8764 9.49835 14.8012 9.34803 14.6509C9.1977 14.5005 9.12259 14.3238 9.12271 14.1206C9.12281 13.9174 9.198 13.7407 9.34826 13.5905L13.5909 9.34783C13.7412 9.19757 13.918 9.12246 14.1213 9.1225C14.3246 9.12255 14.5014 9.19774 14.6518 9.34806C14.8021 9.49839 14.8772 9.67514 14.8771 9.8783C14.877 10.0815 14.8018 10.2582 14.6515 10.4085L10.4089 14.6511ZM16.5825 13.8352C16.4322 13.9855 16.2554 14.0606 16.0521 14.0605C15.8487 14.0605 15.6719 13.9853 15.5216 13.835C15.3713 13.6846 15.2962 13.5079 15.2963 13.3047C15.2964 13.1016 15.3716 12.9248 15.5218 12.7746L17.6576 10.6389C18.2508 10.0456 18.5474 9.3297 18.5474 8.49114C18.5474 7.65258 18.2505 6.9364 17.6567 6.34261C17.063 5.74882 16.3468 5.45192 15.5082 5.45192C14.6697 5.45192 13.9538 5.74855 13.3605 6.3418L11.2248 8.47753C11.0745 8.62779 10.8977 8.70289 10.6944 8.70285C10.4911 8.7028 10.3142 8.62762 10.1639 8.4773C10.0136 8.32697 9.93849 8.15021 9.9386 7.94704C9.93871 7.74387 10.0139 7.56716 10.1642 7.4169L12.2991 5.28199C13.1869 4.39412 14.2566 3.95015 15.5081 3.95006C16.7596 3.94998 17.8292 4.39382 18.717 5.28158C19.6048 6.16934 20.0487 7.2391 20.0489 8.49086C20.0491 9.74261 19.6052 10.8124 18.7174 11.7003L16.5825 13.8352Z" fill="#8F95B2"/>
</svg>
