<svg width="24" height="24" viewBox="0 0 24 24" fill="none" xmlns="http://www.w3.org/2000/svg">
<path d="M4.80012 8.39922C4.80012 4.42277 8.02367 1.19922 12.0001 1.19922C15.9766 1.19922 19.2001 4.42277 19.2001 8.39922V10.5964C19.2001 12.2995 19.663 13.9707 20.5393 15.4312L21.2034 16.538C21.6439 17.2721 21.8641 17.6392 21.8792 17.9389C21.9025 18.4031 21.6557 18.8391 21.2456 19.0579C20.9808 19.1992 20.5527 19.1992 19.6966 19.1992H4.30368C3.44755 19.1992 3.01949 19.1992 2.75471 19.0579C2.3446 18.8391 2.09776 18.4032 2.12112 17.9389C2.1362 17.6392 2.35643 17.2721 2.7969 16.538L3.461 15.4311C4.33725 13.9707 4.80012 12.2996 4.80012 10.5964V8.39922Z" fill="#C6CADA"/>
<path d="M14.82 20.4008C14.9194 20.4008 15.0009 20.4815 14.9916 20.5805C14.938 21.1513 14.6307 21.6903 14.1213 22.0978C13.5587 22.5479 12.7956 22.8008 12 22.8008C11.2044 22.8008 10.4413 22.5479 9.87868 22.0978C9.36927 21.6903 9.06198 21.1513 9.00842 20.5805C8.99913 20.4816 9.08059 20.4008 9.18 20.4008L12 20.4008L14.82 20.4008Z" fill="#C6CADA"/>
</svg>
