<svg width="48" height="48" viewBox="0 0 48 48" fill="none" xmlns="http://www.w3.org/2000/svg">
<circle cx="24" cy="24" r="24" fill="#474D66"/>
<path d="M15.14 19.061C16.0318 17.2389 17.3995 15.7072 19.0901 14.6369C20.7808 13.5666 22.728 12.9999 24.7143 13C27.6018 13 30.0275 14.0901 31.8821 15.8655L28.8104 19.0203C27.6993 17.9302 26.2871 17.3747 24.7143 17.3747C21.9232 17.3747 19.5607 19.3107 18.7196 21.91C18.5054 22.57 18.3832 23.274 18.3832 24C18.3832 24.726 18.5054 25.43 18.7196 26.09C19.5618 28.6904 21.9232 30.6253 24.7143 30.6253C26.1554 30.6253 27.3821 30.2348 28.3421 29.5748C28.8987 29.1986 29.3751 28.7104 29.7427 28.1398C30.1103 27.5692 30.3614 26.928 30.4807 26.255H24.7143V22.0002H34.805C34.9314 22.7196 35 23.4698 35 24.2497C35 27.6003 33.8321 30.4207 31.805 32.3347C30.0329 34.0155 27.6071 35 24.7143 35C23.3071 35.0006 21.9136 34.7164 20.6134 34.1639C19.3133 33.6113 18.1319 32.801 17.1369 31.7795C16.1419 30.7579 15.3527 29.545 14.8144 28.2102C14.2762 26.8754 13.9994 25.4447 14 24C14 22.2246 14.4136 20.546 15.14 19.061Z" fill="white"/>
</svg>
