<svg width="24" height="24" viewBox="0 0 24 24" fill="none" xmlns="http://www.w3.org/2000/svg">
<path d="M4.25 20.5C4.04 20.5 3.86 20.43 3.72 20.28C3.58 20.14 3.5 19.96 3.5 19.75C3.5 19.54 3.57 19.36 3.72 19.22C3.86 19.08 4.04 19 4.25 19H19.75C19.96 19 20.14 19.07 20.28 19.22C20.42 19.36 20.5 19.54 20.5 19.75C20.5 19.96 20.43 20.14 20.28 20.28C20.14 20.42 19.96 20.5 19.75 20.5H4.25ZM4.25 5C4.04 5 3.86 4.93 3.72 4.78C3.58 4.64 3.5 4.46 3.5 4.25C3.5 4.04 3.57 3.86 3.72 3.72C3.86 3.58 4.04 3.5 4.25 3.5H19.75C19.96 3.5 20.14 3.57 20.28 3.72C20.42 3.86 20.5 4.04 20.5 4.25C20.5 4.46 20.43 4.64 20.28 4.78C20.14 4.92 19.96 5 19.75 5H4.25Z" fill="#8F95B2"/>
<path d="M7.25 16.6211C7.04 16.6211 6.86 16.5511 6.72 16.4011C6.58 16.2611 6.5 16.0811 6.5 15.8711C6.5 15.6611 6.57 15.4811 6.72 15.3411C6.86 15.2011 7.04 15.1211 7.25 15.1211H16.75C16.96 15.1211 17.14 15.1911 17.28 15.3411C17.42 15.4811 17.5 15.6611 17.5 15.8711C17.5 16.0811 17.43 16.2611 17.28 16.4011C17.14 16.5411 16.96 16.6211 16.75 16.6211H7.25ZM7.25 8.87109C7.04 8.87109 6.86 8.80109 6.72 8.65109C6.58 8.51109 6.5 8.33109 6.5 8.12109C6.5 7.91109 6.57 7.73109 6.72 7.59109C6.86 7.45109 7.04 7.37109 7.25 7.37109H16.75C16.96 7.37109 17.14 7.44109 17.28 7.59109C17.42 7.73109 17.5 7.91109 17.5 8.12109C17.5 8.33109 17.43 8.51109 17.28 8.65109C17.14 8.79109 16.96 8.87109 16.75 8.87109H7.25Z" fill="#8F95B2"/>
<path d="M4.25 12.75C4.04 12.75 3.86 12.68 3.72 12.53C3.58 12.39 3.5 12.21 3.5 12C3.5 11.79 3.57 11.61 3.72 11.47C3.86 11.33 4.04 11.25 4.25 11.25H19.75C19.96 11.25 20.14 11.32 20.28 11.47C20.42 11.61 20.5 11.79 20.5 12C20.5 12.21 20.43 12.39 20.28 12.53C20.14 12.67 19.96 12.75 19.75 12.75H4.25Z" fill="#8F95B2"/>
</svg>
