<svg width="20" height="20" viewBox="0 0 20 20" fill="none" xmlns="http://www.w3.org/2000/svg">
<path d="M10.0003 14.166C10.2364 14.166 10.4344 14.0862 10.5941 13.9264C10.7538 13.7667 10.8337 13.5688 10.8337 13.3327C10.8337 13.0966 10.7538 12.8987 10.5941 12.7389C10.4344 12.5792 10.2364 12.4994 10.0003 12.4994C9.76422 12.4994 9.5663 12.5792 9.40658 12.7389C9.24685 12.8987 9.16699 13.0966 9.16699 13.3327C9.16699 13.5688 9.24685 13.7667 9.40658 13.9264C9.5663 14.0862 9.76422 14.166 10.0003 14.166ZM10.0003 10.8327C10.2364 10.8327 10.4344 10.7528 10.5941 10.5931C10.7538 10.4334 10.8337 10.2355 10.8337 9.99935V6.66602C10.8337 6.4299 10.7538 6.23199 10.5941 6.07227C10.4344 5.91254 10.2364 5.83268 10.0003 5.83268C9.76422 5.83268 9.5663 5.91254 9.40658 6.07227C9.24685 6.23199 9.16699 6.4299 9.16699 6.66602V9.99935C9.16699 10.2355 9.24685 10.4334 9.40658 10.5931C9.5663 10.7528 9.76422 10.8327 10.0003 10.8327ZM10.0003 18.3327C8.84755 18.3327 7.76421 18.1139 6.75033 17.6764C5.73644 17.2389 4.85449 16.6452 4.10449 15.8952C3.35449 15.1452 2.76074 14.2632 2.32324 13.2494C1.88574 12.2355 1.66699 11.1521 1.66699 9.99935C1.66699 8.84657 1.88574 7.76324 2.32324 6.74935C2.76074 5.73546 3.35449 4.85352 4.10449 4.10352C4.85449 3.35352 5.73644 2.75977 6.75033 2.32227C7.76421 1.88477 8.84755 1.66602 10.0003 1.66602C11.1531 1.66602 12.2364 1.88477 13.2503 2.32227C14.2642 2.75977 15.1462 3.35352 15.8962 4.10352C16.6462 4.85352 17.2399 5.73546 17.6774 6.74935C18.1149 7.76324 18.3337 8.84657 18.3337 9.99935C18.3337 11.1521 18.1149 12.2355 17.6774 13.2494C17.2399 14.2632 16.6462 15.1452 15.8962 15.8952C15.1462 16.6452 14.2642 17.2389 13.2503 17.6764C12.2364 18.1139 11.1531 18.3327 10.0003 18.3327Z" fill="#D14343"/>
</svg>
