<svg width="67" height="67" viewBox="0 0 67 67" fill="none" xmlns="http://www.w3.org/2000/svg">
<path fill-rule="evenodd" clip-rule="evenodd" d="M10.9562 5.66956C10.2272 5.47719 9.46061 5.47938 8.73279 5.67592C8.00496 5.87246 7.3414 6.25647 6.80833 6.78963C6.27525 7.3228 5.8913 7.98647 5.6948 8.71441C5.49829 9.44235 5.4961 10.2091 5.68844 10.9382L10.1363 27.7963L0.69166 42.4582C-1.09592 45.2386 0.776113 48.9129 4.0768 49.0994L21.4811 50.0778L32.5021 63.5854C32.9788 64.1696 33.6002 64.6185 34.3045 64.8874C35.0088 65.1564 35.7713 65.2358 36.5159 65.1179C37.2604 65.0001 37.9611 64.6889 38.5479 64.2156C39.1347 63.7423 39.5872 63.1233 39.8601 62.4205L44.7759 49.7505L60.9908 65.9681C61.6506 66.6285 62.5457 66.9997 63.4792 67C64.4126 67.0003 65.308 66.6298 65.9683 65.9699C66.6285 65.3099 66.9997 64.4147 67 63.4811C67.0003 62.5475 66.6298 61.652 65.97 60.9916L49.7551 44.774L62.4195 39.8574C63.1222 39.5844 63.7411 39.1319 64.2143 38.545C64.6876 37.9581 64.9986 37.2573 65.1165 36.5126C65.2344 35.7679 65.1549 35.0053 64.886 34.3009C64.6172 33.5965 64.1683 32.9749 63.5842 32.4982L50.0789 21.4718L49.1006 4.0647C49.0575 3.3124 48.818 2.58454 48.406 1.95367C47.994 1.32279 47.4239 0.810933 46.7525 0.469111C46.081 0.127289 45.3318 -0.0325574 44.5793 0.00550427C43.8269 0.043566 43.0976 0.278207 42.464 0.686038L27.8115 10.1146L10.9562 5.66956ZM17.2479 27.1628L13.6868 13.6728L27.1781 17.2309C28.3464 17.5406 29.5921 17.3435 30.6125 16.6889L42.3409 9.13269L43.1256 23.0661C43.1924 24.2733 43.766 25.396 44.702 26.1632L55.512 34.9865L42.5063 40.0369C41.3802 40.4733 40.4864 41.3672 40.0466 42.4934L34.997 55.5048L26.1752 44.6931C25.7963 44.2299 25.3255 43.8504 24.7925 43.5784C24.2596 43.3064 23.676 43.1479 23.0786 43.1129L9.14748 42.3315L16.7025 30.5977C17.0259 30.094 17.2414 29.5287 17.3353 28.9375C17.4291 28.3462 17.3994 27.7419 17.2479 27.1628Z" fill="#8E66FF"/>
</svg>
