<svg width="25" height="25" viewBox="0 0 25 25" fill="none" xmlns="http://www.w3.org/2000/svg">
<path d="M19.7732 3.52322C19.9857 3.52322 20.1638 3.59513 20.3075 3.73894C20.4513 3.88276 20.5232 4.06096 20.5232 4.27355C20.5232 4.48615 20.4513 4.66424 20.3075 4.80782C20.1638 4.9514 19.9857 5.02319 19.7732 5.02319L4.27321 5.02319C4.06071 5.02319 3.88259 4.95129 3.73884 4.80747C3.59509 4.66367 3.52321 4.48547 3.52321 4.27287C3.52321 4.06029 3.59509 3.8822 3.73884 3.73862C3.88259 3.59502 4.06071 3.52322 4.27321 3.52322L19.7732 3.52322ZM19.7732 7.39822C19.9857 7.39822 20.1638 7.47013 20.3075 7.61394C20.4513 7.75774 20.5232 7.93594 20.5232 8.14854C20.5232 8.36113 20.4513 8.53921 20.3075 8.68279C20.1638 8.82639 19.9857 8.89819 19.7732 8.89819L10.2732 8.89819C10.0607 8.89819 9.88259 8.82629 9.73884 8.68247C9.59509 8.53865 9.52321 8.36045 9.52321 8.14787C9.52321 7.93527 9.59509 7.75718 9.73884 7.61359C9.88259 7.47001 10.0607 7.39822 10.2732 7.39822L19.7732 7.39822ZM19.7732 11.2732C19.9857 11.2732 20.1638 11.3451 20.3075 11.4889C20.4513 11.6327 20.5232 11.8109 20.5232 12.0235C20.5232 12.2361 20.4513 12.4142 20.3075 12.5578C20.1638 12.7014 19.9857 12.7732 19.7732 12.7732L4.27321 12.7732C4.06071 12.7732 3.88259 12.7013 3.73884 12.5575C3.59509 12.4137 3.52321 12.2355 3.52321 12.0229C3.52321 11.8103 3.59509 11.6322 3.73884 11.4886C3.88259 11.345 4.06071 11.2732 4.27321 11.2732L19.7732 11.2732ZM19.7732 15.1482C19.9857 15.1482 20.1638 15.2201 20.3075 15.3639C20.4513 15.5077 20.5232 15.6859 20.5232 15.8985C20.5232 16.1111 20.4513 16.2892 20.3075 16.4328C20.1638 16.5764 19.9857 16.6482 19.7732 16.6482H10.2732C10.0607 16.6482 9.88259 16.5763 9.73884 16.4324C9.59509 16.2886 9.52321 16.1104 9.52321 15.8978C9.52321 15.6853 9.59509 15.5072 9.73884 15.3636C9.88259 15.22 10.0607 15.1482 10.2732 15.1482L19.7732 15.1482ZM19.7732 19.0232C19.9857 19.0232 20.1638 19.0951 20.3075 19.2389C20.4513 19.3827 20.5232 19.5609 20.5232 19.7735C20.5232 19.9861 20.4513 20.1642 20.3075 20.3078C20.1638 20.4514 19.9857 20.5232 19.7732 20.5232L4.27321 20.5232C4.06071 20.5232 3.88259 20.4513 3.73884 20.3074C3.59509 20.1636 3.52321 19.9854 3.52321 19.7728C3.52321 19.5602 3.59509 19.3822 3.73884 19.2386C3.88259 19.095 4.06071 19.0232 4.27321 19.0232L19.7732 19.0232Z" fill="#8F95B2"/>
</svg>
