<svg width="24" height="24" viewBox="0 0 24 24" fill="none" xmlns="http://www.w3.org/2000/svg">
<path d="M4.25003 20.5C4.03753 20.5 3.8594 20.4281 3.71565 20.2842C3.5719 20.1404 3.50003 19.9622 3.50003 19.7496C3.50003 19.537 3.5719 19.359 3.71565 19.2154C3.8594 19.0718 4.03753 19 4.25003 19H19.75C19.9625 19 20.1406 19.0719 20.2844 19.2157C20.4281 19.3595 20.5 19.5377 20.5 19.7503C20.5 19.9629 20.4281 20.141 20.2844 20.2846C20.1406 20.4282 19.9625 20.5 19.75 20.5H4.25003ZM4.25003 16.625C4.03753 16.625 3.8594 16.5531 3.71565 16.4092C3.5719 16.2654 3.50003 16.0872 3.50003 15.8746C3.50003 15.6621 3.5719 15.484 3.71565 15.3404C3.8594 15.1968 4.03753 15.125 4.25003 15.125H13.75C13.9625 15.125 14.1406 15.1969 14.2844 15.3407C14.4281 15.4845 14.5 15.6627 14.5 15.8753C14.5 16.0879 14.4281 16.266 14.2844 16.4096C14.1406 16.5532 13.9625 16.625 13.75 16.625H4.25003ZM4.25003 12.75C4.03753 12.75 3.8594 12.6781 3.71565 12.5343C3.5719 12.3905 3.50003 12.2123 3.50003 11.9997C3.50003 11.7871 3.5719 11.609 3.71565 11.4654C3.8594 11.3218 4.03753 11.25 4.25003 11.25H19.75C19.9625 11.25 20.1406 11.3219 20.2844 11.4657C20.4281 11.6095 20.5 11.7877 20.5 12.0003C20.5 12.2129 20.4281 12.391 20.2844 12.5346C20.1406 12.6782 19.9625 12.75 19.75 12.75H4.25003ZM4.25003 8.875C4.03753 8.875 3.8594 8.80309 3.71565 8.65927C3.5719 8.51546 3.50003 8.33726 3.50003 8.12467C3.50003 7.91207 3.5719 7.73398 3.71565 7.5904C3.8594 7.44682 4.03753 7.37502 4.25003 7.37502H13.75C13.9625 7.37502 14.1406 7.44693 14.2844 7.59075C14.4281 7.73455 14.5 7.91275 14.5 8.12535C14.5 8.33793 14.4281 8.51601 14.2844 8.6596C14.1406 8.8032 13.9625 8.875 13.75 8.875H4.25003ZM4.25003 5C4.03753 5 3.8594 4.92809 3.71565 4.78427C3.5719 4.64047 3.50003 4.46227 3.50003 4.24967C3.50003 4.03709 3.5719 3.85901 3.71565 3.71542C3.8594 3.57182 4.03753 3.50002 4.25003 3.50002H19.75C19.9625 3.50002 20.1406 3.57193 20.2844 3.71575C20.4281 3.85957 20.5 4.03776 20.5 4.25035C20.5 4.46295 20.4281 4.64104 20.2844 4.78462C20.1406 4.92821 19.9625 5 19.75 5H4.25003Z" fill="#8F95B2"/>
</svg>
