<svg width="168" height="175" viewBox="0 0 168 175" fill="none" xmlns="http://www.w3.org/2000/svg">
<g clip-path="url(#clip0_13101_7079)">
<path d="M162.932 147.141C158.657 158.073 137.267 156.648 93.0626 156.648C48.858 156.648 33.5092 159.669 25.568 147.141C13.2104 127.652 24.1428 30.9258 93.0626 30.9258C161.982 30.9258 170.375 128.127 162.932 147.141Z" fill="#E4E5F0"/>
<path d="M133.074 72.04C133.074 72.04 126.417 64.4331 115.484 64.4331C104.552 64.4331 102.177 70.6148 95.0449 70.6148" stroke="#8F95B2" stroke-width="2.8504" stroke-miterlimit="10" stroke-linecap="round"/>
<path d="M69.5083 84.1571C72.0381 84.1571 74.0889 81.1268 74.0889 77.3888C74.0889 73.6508 72.0381 70.6206 69.5083 70.6206C66.9785 70.6206 64.9277 73.6508 64.9277 77.3888C64.9277 81.1268 66.9785 84.1571 69.5083 84.1571Z" fill="#8F95B2"/>
<path d="M97.6021 86.2977C100.132 86.2977 102.183 83.2674 102.183 79.5295C102.183 75.7915 100.132 72.7612 97.6021 72.7612C95.0723 72.7612 93.0215 75.7915 93.0215 79.5295C93.0215 83.2674 95.0723 86.2977 97.6021 86.2977Z" fill="#8F95B2"/>
<path d="M108.271 96.7605C108.271 96.7605 111.79 93.0362 117.232 91.3178C122.669 89.5993 126.593 92.35 126.593 92.35" stroke="#8F95B2" stroke-width="2.8504" stroke-miterlimit="10" stroke-linecap="round"/>
<path d="M76.4877 50.6263C76.4877 50.6263 67.7254 46.6088 59.9953 41.254C53.7256 36.908 51.5556 31.2835 45.7785 30.8084C39.503 30.2864 36.9165 35.1251 36.9165 35.1251" stroke="#8F95B2" stroke-width="2.8504" stroke-miterlimit="10" stroke-linecap="round"/>
<path d="M56.4588 96.7545C70.1086 96.7545 81.174 85.6892 81.174 72.0394C81.174 58.3896 70.1086 47.3242 56.4588 47.3242C42.809 47.3242 31.7437 58.3896 31.7437 72.0394C31.7437 85.6892 42.809 96.7545 56.4588 96.7545Z" stroke="#8F95B2" stroke-width="2.8504" stroke-miterlimit="10" stroke-linecap="round"/>
<path d="M31.7436 69.1892C31.7436 69.1892 21.2862 66.3388 18.4358 93.9043C16.8112 109.623 15.5854 120.995 15.5854 120.995" stroke="#8F95B2" stroke-width="2.8504" stroke-miterlimit="10" stroke-linecap="round"/>
<path d="M15.6384 121.124L9.80273 124.461L18.6882 126.878L15.6384 121.124Z" stroke="#8F95B2" stroke-width="2.8504" stroke-linecap="round" stroke-linejoin="round"/>
<path d="M142.493 11.6766C142.493 11.6766 142.95 5.94652 148.193 3.11959C154.375 -0.205875 162.404 4.09904 164.833 8.34531C168.633 15.0021 164.357 25.9345 153.9 24.5034C145.132 23.307 143.918 29.735 143.918 29.735" stroke="#8F95B2" stroke-width="2.8504" stroke-miterlimit="10" stroke-linecap="round"/>
<path d="M145.343 40.6677C146.393 40.6677 147.243 39.8169 147.243 38.7675C147.243 37.718 146.393 36.8672 145.343 36.8672C144.294 36.8672 143.443 37.718 143.443 38.7675C143.443 39.8169 144.294 40.6677 145.343 40.6677Z" fill="#8F95B2"/>
<path d="M91.5549 123.494L93.7074 107.295C93.8599 106.157 93.2323 105.06 92.1708 104.62C87.0506 102.497 71.8954 97.283 59.4381 103.834C46.324 110.726 44.0542 121.611 44.0542 121.611L48.2829 139.57L91.5491 123.494H91.5549Z" stroke="#8F95B2" stroke-width="2.8504" stroke-miterlimit="10"/>
<path d="M0.928896 110.995L23.0459 165.663C23.345 166.408 24.1309 166.836 24.9227 166.695C27.2511 166.285 32.5179 165.704 39.8784 166.983C47.7024 168.343 56.6113 174.912 56.6113 174.912L43.5793 119.588C43.5793 119.588 43.5499 108.467 26.6646 105.764C17.9081 104.362 6.37163 107.418 2.01392 108.726C1.05793 109.013 0.5594 110.063 0.928896 110.989V110.995Z" fill="#8F95B2"/>
<path d="M59.4791 175C59.4791 175 68.347 169.194 79.8014 168.754C87.7426 168.449 93.3496 169.2 96.0416 169.692C97.0211 169.868 97.936 169.164 98.0299 168.179L102.176 122.983C102.229 122.397 101.983 121.828 101.514 121.476C98.7571 119.394 88.3995 112.491 70.5523 111.06C48.535 109.3 44.887 119.593 44.887 119.593H43.585L56.617 174.918L59.4791 175Z" fill="#8F95B2"/>
</g>
<defs>
<clipPath id="clip0_13101_7079">
<rect width="166.819" height="174.49" fill="white" transform="translate(0.805664 0.509766)"/>
</clipPath>
</defs>
</svg>
