<svg width="240" height="34" viewBox="0 0 240 34" fill="none" xmlns="http://www.w3.org/2000/svg">
<rect width="240" height="34" rx="10" fill="#EEF9F6"/>
<path d="M19.7504 22.5981C19.0105 23.338 18.1191 23.708 17.0762 23.708C16.0333 23.7081 15.142 23.3382 14.4022 22.5984C13.6624 21.8586 13.2924 20.9672 13.2922 19.924C13.2921 18.8809 13.662 17.9894 14.4018 17.2495L16.1809 15.4704C16.3062 15.3452 16.4535 15.2826 16.6229 15.2827C16.7924 15.2827 16.9397 15.3454 17.065 15.4706C17.1903 15.5959 17.2529 15.7432 17.2528 15.9125C17.2527 16.0818 17.19 16.2291 17.0648 16.3543L15.285 18.1341C14.7906 18.6284 14.5435 19.225 14.5435 19.9238C14.5435 20.6226 14.7909 21.2194 15.2857 21.7143C15.7805 22.2091 16.3773 22.4565 17.0761 22.4565C17.7749 22.4565 18.3715 22.2093 18.8659 21.7149L20.6457 19.9352C20.7709 19.8099 20.9182 19.7474 21.0876 19.7474C21.2571 19.7474 21.4045 19.8101 21.5297 19.9353C21.655 20.0606 21.7176 20.2079 21.7175 20.3772C21.7174 20.5465 21.6547 20.6938 21.5295 20.819L19.7504 22.5981ZM18.6739 19.2099C18.5487 19.3351 18.4014 19.3977 18.2319 19.3977C18.0625 19.3976 17.9151 19.335 17.7899 19.2097C17.6646 19.0844 17.602 18.9371 17.6021 18.7678C17.6022 18.5985 17.6648 18.4513 17.7901 18.326L21.3256 14.7905C21.4508 14.6653 21.5981 14.6027 21.7676 14.6027C21.937 14.6028 22.0844 14.6654 22.2096 14.7907C22.3349 14.916 22.3975 15.0633 22.3974 15.2326C22.3973 15.4019 22.3347 15.5491 22.2094 15.6744L18.6739 19.2099ZM23.8185 18.53C23.6933 18.6552 23.546 18.7178 23.3766 18.7177C23.2071 18.7177 23.0598 18.6551 22.9345 18.5298C22.8092 18.4045 22.7466 18.2572 22.7467 18.0879C22.7468 17.9186 22.8095 17.7713 22.9347 17.6461L24.7145 15.8664C25.2088 15.372 25.456 14.7754 25.456 14.0766C25.456 13.3778 25.2086 12.781 24.7138 12.2862C24.219 11.7913 23.6222 11.5439 22.9234 11.5439C22.2246 11.5439 21.628 11.7911 21.1336 12.2855L19.3538 14.0653C19.2286 14.1905 19.0813 14.2531 18.9118 14.253C18.7424 14.253 18.595 14.1903 18.4698 14.0651C18.3445 13.9398 18.2819 13.7925 18.282 13.6232C18.2821 13.4539 18.3447 13.3066 18.47 13.1814L20.2491 11.4023C20.9889 10.6624 21.8804 10.2924 22.9233 10.2924C23.9662 10.2923 24.8575 10.6622 25.5973 11.402C26.3371 12.1418 26.7071 13.0332 26.7073 14.0764C26.7074 15.1195 26.3375 16.011 25.5976 16.7509L23.8185 18.53Z" fill="#4CBFA4"/>
<path d="M37.1191 17.543V22H35.9434V12.1016H37.1191V15.7383H37.2148C37.5635 14.9727 38.2266 14.4805 39.4023 14.4805C40.9199 14.4805 41.9316 15.376 41.9316 17.2832V22H40.7559V17.3652C40.7559 16.1963 40.1133 15.5332 39.0469 15.5332C37.9395 15.5332 37.1191 16.2578 37.1191 17.543ZM47.0586 14.5762V15.5605H45.5V19.8672C45.4932 20.8174 45.9717 20.9746 46.4707 20.9746C46.6826 20.9746 46.9971 20.9541 47.168 20.9473V22.041C46.9834 22.0684 46.6963 22.0957 46.3477 22.0957C45.3564 22.0957 44.3174 21.4805 44.3105 20.168V15.5605H43.1895V14.5762H44.3105V12.7988H45.5V14.5762H47.0586ZM51.8164 14.5762V15.5605H50.2578V19.8672C50.251 20.8174 50.7295 20.9746 51.2285 20.9746C51.4404 20.9746 51.7549 20.9541 51.9258 20.9473V22.041C51.7412 22.0684 51.4541 22.0957 51.1055 22.0957C50.1143 22.0957 49.0752 21.4805 49.0684 20.168V15.5605H47.9473V14.5762H49.0684V12.7988H50.2578V14.5762H51.8164ZM53.334 24.7891V14.5762H54.4688V15.752H54.6055C54.8584 15.3555 55.3096 14.4805 56.752 14.4805C58.6182 14.4805 59.9102 15.957 59.9102 18.3086C59.9102 20.667 58.6182 22.1572 56.7656 22.1504C55.3506 22.1572 54.8584 21.2754 54.6055 20.8652H54.5098V24.7891H53.334ZM54.4824 18.2812C54.4893 19.9492 55.2344 21.0977 56.6016 21.0977C58.0098 21.0977 58.7344 19.8604 58.7344 18.2812C58.7344 16.7295 58.0303 15.5332 56.6016 15.5332C55.2139 15.5332 54.4893 16.6338 54.4824 18.2812ZM65.5703 16.5039C65.4062 15.8887 64.9346 15.4854 64.0664 15.4785C63.1504 15.4854 62.501 15.9775 62.4941 16.5996C62.501 17.0918 62.8975 17.4268 63.7656 17.6387L64.873 17.9121C66.1992 18.2266 66.8486 18.8896 66.8555 19.9219C66.8486 21.207 65.8027 22.1572 63.9434 22.1504C62.2754 22.1572 61.2842 21.4121 61.0859 20.0586H62.3164C62.4531 20.7832 62.9795 21.1318 63.916 21.125C64.9756 21.1318 65.6387 20.6875 65.6387 19.9902C65.6387 19.4639 65.2627 19.1221 64.4219 18.9238L63.3008 18.6641C62.0088 18.3633 61.3184 17.6592 61.3184 16.668C61.3184 15.3965 62.4326 14.4805 64.0664 14.4805C65.6045 14.4805 66.5684 15.3008 66.7188 16.5039H65.5703ZM69.2207 22.082C68.7422 22.0752 68.332 21.6787 68.3457 21.1934C68.332 20.7148 68.7422 20.3184 69.2207 20.3184C69.7061 20.3184 70.1025 20.7148 70.0957 21.1934C70.1025 21.6787 69.7061 22.0752 69.2207 22.082ZM68.3457 15.6973C68.332 15.2188 68.7422 14.8223 69.2207 14.8223C69.7061 14.8223 70.1025 15.2188 70.0957 15.6973C70.1025 16.1826 69.7061 16.5791 69.2207 16.5859C68.7422 16.5791 68.332 16.1826 68.3457 15.6973ZM75.4688 11.6367L72.2695 23.4902H71.2031L74.3887 11.6367H75.4688ZM80.1445 11.6367L76.9453 23.4902H75.8789L79.0645 11.6367H80.1445ZM82.9609 22L80.7051 14.5762H81.9492L83.5352 20.2363H83.6035L85.1758 14.5762H86.4336L87.9785 20.209H88.0605L89.6465 14.5762H90.877L88.6211 22H87.459L85.8457 16.3398H85.7363L84.1367 22H82.9609ZM93.8438 22L91.5879 14.5762H92.832L94.418 20.2363H94.4863L96.0586 14.5762H97.3164L98.8613 20.209H98.9434L100.529 14.5762H101.76L99.5039 22H98.3418L96.7285 16.3398H96.6191L95.0195 22H93.8438ZM104.727 22L102.471 14.5762H103.715L105.301 20.2363H105.369L106.941 14.5762H108.199L109.744 20.209H109.826L111.412 14.5762H112.643L110.387 22H109.225L107.611 16.3398H107.502L105.902 22H104.727ZM113.764 22.082C113.285 22.0752 112.875 21.6787 112.889 21.1934C112.875 20.7148 113.285 20.3184 113.764 20.3184C114.249 20.3184 114.646 20.7148 114.639 21.1934C114.646 21.6787 114.249 22.0752 113.764 22.082ZM118.152 22L115.896 14.5762H117.141L118.727 20.2363H118.795L120.367 14.5762H121.625L123.17 20.209H123.252L124.838 14.5762H126.068L123.812 22H122.65L121.037 16.3398H120.928L119.328 22H118.152ZM127.367 22V14.5762H128.543V22H127.367ZM127.135 12.5664C127.128 12.1289 127.504 11.7803 127.955 11.7871C128.406 11.7803 128.782 12.1289 128.789 12.5664C128.782 12.9971 128.406 13.3457 127.955 13.3457C127.504 13.3457 127.128 12.9971 127.135 12.5664ZM130.416 22V12.1016H131.592V17.8574H131.729L134.941 14.5762H136.391L133.26 17.7549L136.623 22H135.133L132.378 18.5L131.592 19.2314V22H130.416ZM137.648 22V14.5762H138.824V22H137.648ZM137.416 12.5664C137.409 12.1289 137.785 11.7803 138.236 11.7871C138.688 11.7803 139.063 12.1289 139.07 12.5664C139.063 12.9971 138.688 13.3457 138.236 13.3457C137.785 13.3457 137.409 12.9971 137.416 12.5664ZM143.814 22.1504C141.668 22.1572 140.342 20.626 140.342 18.3496C140.342 16.0664 141.688 14.4805 143.705 14.4805C145.264 14.4805 146.911 15.4375 146.904 18.1855V18.6777H141.518C141.579 20.25 142.495 21.1113 143.814 21.1113C144.703 21.1113 145.264 20.7217 145.537 20.2637H146.795C146.446 21.3916 145.346 22.1572 143.814 22.1504ZM141.524 17.6797H145.715C145.708 16.4424 144.929 15.5195 143.705 15.5195C142.42 15.5195 141.606 16.5312 141.524 17.6797ZM151.238 22.1504C149.386 22.1572 148.08 20.667 148.08 18.3086C148.08 15.957 149.386 14.4805 151.252 14.4805C152.694 14.4805 153.146 15.3555 153.398 15.752H153.48V12.1016H154.67V22H153.521V20.8652H153.398C153.139 21.2754 152.653 22.1572 151.238 22.1504ZM149.27 18.2812C149.27 19.8604 149.994 21.0977 151.402 21.0977C152.763 21.0977 153.515 19.9492 153.521 18.2812C153.515 16.6338 152.783 15.5332 151.402 15.5332C149.974 15.5332 149.27 16.7295 149.27 18.2812ZM157.541 22.082C157.062 22.0752 156.652 21.6787 156.666 21.1934C156.652 20.7148 157.062 20.3184 157.541 20.3184C158.026 20.3184 158.423 20.7148 158.416 21.1934C158.423 21.6787 158.026 22.0752 157.541 22.082ZM160.262 22V12.1016H161.438V17.8574H161.574L164.787 14.5762H166.236L163.105 17.7549L166.469 22H164.979L162.224 18.5L161.438 19.2314V22H160.262ZM167.494 22V14.5762H168.629V15.7109H168.711C168.978 14.959 169.75 14.46 170.625 14.4531C170.803 14.46 171.104 14.4668 171.24 14.4805V15.6699C171.151 15.6494 170.837 15.5879 170.529 15.5879C169.463 15.5879 168.67 16.3262 168.67 17.3242V22H167.494ZM175.451 11.6367L172.252 23.4902H171.186L174.371 11.6367H175.451ZM176.6 22V12.1016H177.775V17.8574H177.912L181.125 14.5762H182.574L179.443 17.7549L182.807 22H181.316L178.562 18.5L177.775 19.2314V22H176.6ZM183.832 22V14.5762H185.008V22H183.832ZM183.6 12.5664C183.593 12.1289 183.969 11.7803 184.42 11.7871C184.871 11.7803 185.247 12.1289 185.254 12.5664C185.247 12.9971 184.871 13.3457 184.42 13.3457C183.969 13.3457 183.593 12.9971 183.6 12.5664ZM186.881 22V14.5762H188.016V15.7383H188.111C188.419 14.9453 189.137 14.4805 190.107 14.4805C191.078 14.4805 191.741 14.9453 192.09 15.7383H192.172C192.548 14.9727 193.334 14.4805 194.4 14.4805C195.72 14.4805 196.67 15.2871 196.67 17.0371V22H195.494V17.0508C195.487 15.957 194.804 15.5332 193.99 15.5332C192.958 15.5332 192.37 16.2305 192.363 17.1738V22H191.174V16.9277C191.181 16.0938 190.579 15.5332 189.725 15.5332C188.836 15.5332 188.057 16.2852 188.057 17.3652V22H186.881ZM201.359 22.1504C199.507 22.1572 198.201 20.667 198.201 18.3086C198.201 15.957 199.507 14.4805 201.373 14.4805C202.815 14.4805 203.267 15.3555 203.52 15.752H203.602V12.1016H204.791V22H203.643V20.8652H203.52C203.26 21.2754 202.774 22.1572 201.359 22.1504ZM199.391 18.2812C199.391 19.8604 200.115 21.0977 201.523 21.0977C202.884 21.0977 203.636 19.9492 203.643 18.2812C203.636 16.6338 202.904 15.5332 201.523 15.5332C200.095 15.5332 199.391 16.7295 199.391 18.2812ZM209.863 22.1504C207.84 22.1572 206.473 20.626 206.473 18.3223C206.473 16.0049 207.84 14.4805 209.863 14.4805C211.88 14.4805 213.233 16.0049 213.227 18.3223C213.233 20.626 211.88 22.1572 209.863 22.1504ZM207.648 18.3223C207.655 19.8057 208.353 21.1113 209.863 21.1113C211.36 21.1113 212.051 19.8057 212.051 18.3223C212.051 16.8457 211.36 15.5195 209.863 15.5195C208.353 15.5195 207.655 16.8457 207.648 18.3223ZM215.947 17.543V22H214.771V14.5762H215.906V15.7383H216.002C216.351 14.9795 217.048 14.4805 218.176 14.4805C219.68 14.4805 220.685 15.3965 220.678 17.2832V22H219.502V17.3652C219.502 16.2168 218.873 15.5332 217.82 15.5332C216.74 15.5332 215.947 16.2578 215.947 17.543ZM225.572 24.9395C223.774 24.9395 222.558 24.1533 222.428 22.7793H223.658C223.815 23.5381 224.52 23.9141 225.572 23.9141C226.844 23.9141 227.623 23.3604 227.623 22.1367V20.6328H227.527C227.274 21.043 226.803 21.8838 225.367 21.8906C223.562 21.8838 222.209 20.5234 222.209 18.1855C222.209 15.9023 223.515 14.4805 225.381 14.4805C226.823 14.4805 227.288 15.3555 227.555 15.752H227.65V14.5762H228.799V22.2051C228.792 24.1191 227.384 24.9395 225.572 24.9395ZM223.398 18.2266C223.398 19.7646 224.123 20.8379 225.531 20.8379C226.892 20.8379 227.644 19.8604 227.65 18.2266C227.644 16.6338 226.912 15.5332 225.531 15.5332C224.103 15.5332 223.398 16.7295 223.398 18.2266Z" fill="#4CBFA4"/>
</svg>
